<?xml version="1.0" encoding="utf-8"?>
<!-- Generator: Adobe Illustrator 24.2.1, SVG Export Plug-In . SVG Version: 6.00 Build 0)  -->
<svg version="1.1" id="Capa_1" xmlns="http://www.w3.org/2000/svg" xmlns:xlink="http://www.w3.org/1999/xlink" x="0px" y="0px"
	 viewBox="0 0 512 512" style="enable-background:new 0 0 512 512;" xml:space="preserve">
<style type="text/css">
	.st0{fill:url(#SVGID_1_);}
	.st1{opacity:0.1;enable-background:new    ;}
	.st2{fill:#00EAAB;}
	.st3{fill:#FFFFFF;}
	.st4{fill:#1AB394;}
	.st5{fill:none;stroke:#1AB394;stroke-width:10;stroke-linecap:round;stroke-linejoin:round;stroke-miterlimit:10;}
</style>
<g>
	
		<linearGradient id="SVGID_1_" gradientUnits="userSpaceOnUse" x1="53.9751" y1="1661.9999" x2="458.024" y2="1661.9999" gradientTransform="matrix(1 0 0 1 0 -1406)">
		<stop  offset="0" style="stop-color:#D2DEFF;stop-opacity:0"/>
		<stop  offset="1" style="stop-color:#00EAAB"/>
	</linearGradient>
	<path class="st0" d="M170.1,0.4C102,4.8,35.9,61.5,58.5,135.5c18.3,59.7,84.7,87.7,134.7,115.7c47.9,26.8,98.6,60.2,112,117.2
		c9.2,39.2-2.1,84.9,22,117.2c42.3,56.7,124.1,13.6,130.3-47.3c5.2-50.5-31.5-94.7-65.8-132.2c-33.3-36.3-70.5-71.4-100-110.8
		c-27.3-36.6-41.6-82-5.4-118.2c8.1-8.1,17.8-16.5,14.9-29.7C291.4,3.9,203.4-1.8,170.1,0.4L170.1,0.4z"/>
	<g class="st1">
		<path class="st2" d="M458,394.3c0-7.7,5.3-14.1,12.5-15.8c2.1-0.5,3.7-2.3,3.7-4.6v-7.8c0-2.2-1.6-4-3.7-4.6
			c-7.2-1.7-12.5-8.1-12.5-15.8s5.3-14.1,12.5-15.8c2.1-0.5,3.7-2.3,3.7-4.6v-7.8c0-2.2-1.6-4-3.7-4.6c-7.2-1.7-12.5-8.1-12.5-15.8
			s5.3-14.1,12.5-15.8c2.1-0.5,3.7-2.3,3.7-4.6v-7.8c0-2.2-1.6-4-3.7-4.6c-7.2-1.7-12.5-8.1-12.5-15.8s5.3-14.1,12.5-15.8
			c2.1-0.5,3.7-2.3,3.7-4.6v-7.8c0-2.2-1.6-4-3.7-4.6c-7.2-1.7-12.5-8.1-12.5-15.8s5.3-14.1,12.5-15.8c2.1-0.5,3.7-2.3,3.7-4.6v-7.8
			c0-2.2-1.6-4-3.7-4.6c-7.2-1.7-12.5-8.1-12.5-15.8s5.3-14.1,12.5-15.8c2.1-0.5,3.7-2.3,3.7-4.6V111c0-2.6-2.1-4.7-4.7-4.7h-17.1
			c-2.2,0-4.1,1.6-4.6,3.7c-1.7,7.5-8.4,13-16.4,13s-14.7-5.6-16.4-13c-0.5-2.2-2.4-3.7-4.6-3.7h-8.3c-2.2,0-4.1,1.6-4.6,3.7
			c-1.7,7.5-8.4,13-16.4,13s-14.7-5.6-16.4-13c-0.5-2.2-2.4-3.7-4.6-3.7h-8.3c-2.2,0-4.1,1.6-4.6,3.7c-1.7,7.5-8.4,13-16.4,13
			s-14.7-5.6-16.4-13c-0.5-2.2-2.4-3.7-4.6-3.7H302c-2.2,0-4.1,1.6-4.6,3.7c-1.7,7.5-8.4,13-16.4,13s-14.7-5.6-16.4-13
			c-0.5-2.2-2.4-3.7-4.6-3.7h-8.3c-2.2,0-4.1,1.6-4.6,3.7c-1.7,7.5-8.4,13-16.4,13s-14.7-5.6-16.4-13c-0.5-2.2-2.4-3.7-4.6-3.7h-8.3
			c-2.2,0-4.1,1.6-4.6,3.7c-1.7,7.5-8.4,13-16.4,13s-14.7-5.6-16.4-13c-0.5-2.2-2.4-3.7-4.6-3.7h-8.3c-2.2,0-4.1,1.6-4.6,3.7
			c-1.7,7.5-8.4,13-16.4,13s-14.7-5.6-16.4-13c-0.5-2.2-2.4-3.7-4.6-3.7h-8.3c-2.2,0-4.1,1.6-4.6,3.7c-1.7,7.5-8.4,13-16.4,13
			s-14.7-5.6-16.4-13c-0.5-2.2-2.3-3.7-4.6-3.7H42.5c-2.6,0-4.7,2.1-4.7,4.7v20.7c0,2.2,1.6,4,3.7,4.6c7.2,1.7,12.5,8.1,12.5,15.8
			s-5.3,14.1-12.5,15.8c-2.1,0.5-3.7,2.3-3.7,4.6v7.8c0,2.2,1.6,4,3.7,4.6c7.2,1.7,12.5,8.1,12.5,15.8s-5.3,14.1-12.5,15.8
			c-2.1,0.5-3.7,2.3-3.7,4.6v7.8c0,2.2,1.6,4,3.7,4.6c7.2,1.7,12.5,8.1,12.5,15.8c0,7.7-5.3,14.1-12.5,15.8
			c-2.1,0.5-3.7,2.3-3.7,4.6v7.8c0,2.2,1.6,4,3.7,4.6c7.2,1.7,12.5,8.1,12.5,15.8s-5.3,14.1-12.5,15.8c-2.1,0.5-3.7,2.3-3.7,4.6v7.8
			c0,2.2,1.6,4,3.7,4.6c7.2,1.7,12.5,8.1,12.5,15.8c0,7.7-5.3,14.1-12.5,15.8c-2.1,0.5-3.7,2.3-3.7,4.5v6.9c0,3.1,1.6,4.9,3.7,5.4
			c7.2,1.7,12.5,8.1,12.5,15.8s-5.3,14.1-12.5,15.8c-2.1,0.5-3.7,2.3-3.7,4.5v20.7c0,2.6,2.1,4.7,4.7,4.7h17.1
			c2.2,0,4.1-1.6,4.6-3.7c1.7-7.5,8.4-13,16.4-13s14.7,5.6,16.4,13c0.5,2.2,2.4,3.7,4.6,3.7h8.3c2.2,0,4.1-1.6,4.6-3.7
			c1.7-7.5,8.4-13,16.4-13s14.7,5.6,16.4,13c0.5,2.2,2.4,3.7,4.6,3.7h8.3c2.2,0,4.1-1.6,4.6-3.7c1.7-7.5,8.4-13,16.4-13
			s14.7,5.6,16.4,13c0.5,2.2,2.4,3.7,4.6,3.7h8.3c2.2,0,4.1-1.6,4.6-3.7c1.7-7.5,8.4-13,16.4-13s14.7,5.6,16.4,13
			c0.5,2.2,2.4,3.7,4.6,3.7h8.3c2.2,0,4.1-1.6,4.6-3.7c1.7-7.5,8.4-13,16.4-13s14.7,5.6,16.4,13c0.5,2.2,2.4,3.7,4.6,3.7h8.3
			c2.2,0,4.1-1.6,4.6-3.7c1.7-7.5,8.4-13,16.4-13s14.7,5.6,16.4,13c0.5,2.2,2.4,3.7,4.6,3.7h8.3c2.2,0,4.1-1.6,4.6-3.7
			c1.7-7.5,8.4-13,16.4-13s14.7,5.6,16.4,13c0.5,2.2,2.4,3.7,4.6,3.7h8.3c2.2,0,4.1-1.6,4.6-3.7c1.7-7.5,8.4-13,16.4-13
			s14.7,5.6,16.4,13c0.5,2.2,2.4,3.7,4.6,3.7h17.1c2.6,0,4.7-2.1,4.7-4.7v-20.7c0-2.2-1.6-4-3.7-4.6C463.3,408.4,458,402,458,394.3
			L458,394.3z"/>
	</g>
	<g>
		<path class="st3" d="M458,371.9c0-7.7,5.3-14.1,12.5-15.8c2.1-0.5,3.7-2.3,3.7-4.6v-7.8c0-2.2-1.6-4-3.7-4.6
			c-7.2-1.7-12.5-8.1-12.5-15.8s5.3-14.1,12.5-15.8c2.1-0.5,3.7-2.3,3.7-4.6v-7.8c0-2.2-1.6-4-3.7-4.6c-7.2-1.7-12.5-8.1-12.5-15.8
			s5.3-14.1,12.5-15.8c2.1-0.5,3.7-2.3,3.7-4.6v-7.8c0-2.2-1.6-4-3.7-4.6c-7.2-1.7-12.5-8.1-12.5-15.8s5.3-14.1,12.5-15.8
			c2.1-0.5,3.7-2.3,3.7-4.6v-7.8c0-2.2-1.6-4-3.7-4.6c-7.2-1.7-12.5-8.1-12.5-15.8s5.3-14.1,12.5-15.8c2.1-0.5,3.7-2.3,3.7-4.6V150
			c0-2.2-1.6-4-3.7-4.6c-7.2-1.7-12.5-8.1-12.5-15.8s5.3-14.1,12.5-15.8c2.1-0.5,3.7-2.3,3.7-4.6V88.6c0-2.6-2.1-4.7-4.7-4.7h-17.1
			c-2.2,0-4.1,1.6-4.6,3.7c-1.7,7.5-8.4,13-16.4,13s-14.7-5.6-16.4-13c-0.5-2.2-2.4-3.7-4.6-3.7h-8.3c-2.2,0-4.1,1.6-4.6,3.7
			c-1.7,7.5-8.4,13-16.4,13s-14.7-5.6-16.4-13c-0.5-2.2-2.4-3.7-4.6-3.7h-8.3c-2.2,0-4.1,1.6-4.6,3.7c-1.7,7.5-8.4,13-16.4,13
			s-14.7-5.6-16.4-13c-0.5-2.2-2.4-3.7-4.6-3.7H302c-2.2,0-4.1,1.6-4.6,3.7c-1.7,7.5-8.4,13-16.4,13s-14.7-5.6-16.4-13
			c-0.5-2.2-2.4-3.7-4.6-3.7h-8.3c-2.2,0-4.1,1.6-4.6,3.7c-1.7,7.5-8.4,13-16.4,13s-14.7-5.6-16.4-13c-0.5-2.2-2.4-3.7-4.6-3.7h-8.3
			c-2.2,0-4.1,1.6-4.6,3.7c-1.7,7.5-8.4,13-16.4,13s-14.7-5.6-16.4-13c-0.5-2.2-2.4-3.7-4.6-3.7h-8.3c-2.2,0-4.1,1.6-4.6,3.7
			c-1.7,7.5-8.4,13-16.4,13s-14.7-5.6-16.4-13c-0.5-2.2-2.4-3.7-4.6-3.7h-8.3c-2.2,0-4.1,1.6-4.6,3.7c-1.7,7.5-8.4,13-16.4,13
			s-14.7-5.6-16.4-13c-0.5-2.2-2.3-3.7-4.6-3.7H42.5c-2.6,0-4.7,2.1-4.7,4.7v20.7c0,2.2,1.6,4,3.7,4.6c7.2,1.7,12.5,8.1,12.5,15.8
			s-5.3,14.1-12.5,15.8c-2.1,0.5-3.7,2.3-3.7,4.6v7.8c0,2.2,1.6,4,3.7,4.6c7.2,1.7,12.5,8.1,12.5,15.8s-5.3,14.1-12.5,15.8
			c-2.1,0.5-3.7,2.3-3.7,4.6v7.8c0,2.2,1.6,4,3.7,4.6c7.2,1.7,12.5,8.1,12.5,15.8s-5.3,14.1-12.5,15.8c-2.1,0.5-3.7,2.3-3.7,4.6v7.8
			c0,2.2,1.6,4,3.7,4.6c7.2,1.7,12.5,8.1,12.5,15.8s-5.3,14.1-12.5,15.8c-2.1,0.5-3.7,2.3-3.7,4.6v7.8c0,2.2,1.6,4,3.7,4.6
			c7.2,1.7,12.5,8.1,12.5,15.8c0,7.7-5.3,14.1-12.5,15.8c-2.1,0.5-3.7,2.3-3.7,4.5v6.9c0,3.1,1.6,4.9,3.7,5.4
			c7.2,1.7,12.5,8.1,12.5,15.8s-5.3,14.1-12.5,15.8c-2.1,0.5-3.7,2.3-3.7,4.5V413c0,2.6,2.1,4.7,4.7,4.7h17.1c2.2,0,4.1-1.6,4.6-3.7
			c1.7-7.5,8.4-13,16.4-13s14.7,5.6,16.4,13c0.5,2.2,2.4,3.7,4.6,3.7h8.3c2.2,0,4.1-1.6,4.6-3.7c1.7-7.5,8.4-13,16.4-13
			s14.7,5.6,16.4,13c0.5,2.2,2.4,3.7,4.6,3.7h8.3c2.2,0,4.1-1.6,4.6-3.7c1.7-7.5,8.4-13,16.4-13s14.7,5.6,16.4,13
			c0.5,2.2,2.4,3.7,4.6,3.7h8.3c2.2,0,4.1-1.6,4.6-3.7c1.7-7.5,8.4-13,16.4-13s14.7,5.6,16.4,13c0.5,2.2,2.4,3.7,4.6,3.7h8.3
			c2.2,0,4.1-1.6,4.6-3.7c1.7-7.5,8.4-13,16.4-13s14.7,5.6,16.4,13c0.5,2.2,2.4,3.7,4.6,3.7h8.3c2.2,0,4.1-1.6,4.6-3.7
			c1.7-7.5,8.4-13,16.4-13s14.7,5.6,16.4,13c0.5,2.2,2.4,3.7,4.6,3.7h8.3c2.2,0,4.1-1.6,4.6-3.7c1.7-7.5,8.4-13,16.4-13
			s14.7,5.6,16.4,13c0.5,2.2,2.4,3.7,4.6,3.7h8.3c2.2,0,4.1-1.6,4.6-3.7c1.7-7.5,8.4-13,16.4-13s14.7,5.6,16.4,13
			c0.5,2.2,2.4,3.7,4.6,3.7h17.1c2.6,0,4.7-2.1,4.7-4.7v-20.7c0-2.2-1.6-4-3.7-4.6C463.3,386,458,379.6,458,371.9L458,371.9z"/>
	</g>
	<g>
		<path class="st2" d="M429,144.8v212.1c0,5.1-4.2,9.3-9.3,9.3H92.3c-5.1,0-9.3-4.2-9.3-9.3V144.8c0-5.1,4.2-9.3,9.3-9.3h327.4
			C424.8,135.4,429,139.6,429,144.8z"/>
	</g>
	<g>
		<path class="st3" d="M430,252.1v104.8c0,5.1-5.2,10.3-10.3,10.3H92.3c-5.1,0-10.3-5.2-10.3-10.3V252.1c45.8-28.6,107.4-46,174-46
			S384.2,223.5,430,252.1z"/>
	</g>
	<g>
		<path class="st4" d="M386.6,230.6c-10.2,0-15.5-3.4-20.1-6.4c-4.2-2.7-7.5-4.8-14.7-4.8s-10.5,2.1-14.7,4.8
			c-4.7,3-9.9,6.4-20.1,6.4s-15.5-3.4-20.1-6.4c-4.2-2.7-7.5-4.8-14.7-4.8s-10.5,2.1-14.7,4.8c-4.7,3-9.9,6.4-20.1,6.4
			c-10.2,0-15.5-3.4-20.1-6.4c-4.2-2.7-7.5-4.8-14.7-4.8c-2.8,0-5-2.2-5-5s2.2-5,5-5c10.2,0,15.5,3.4,20.1,6.4
			c4.2,2.7,7.5,4.8,14.7,4.8c7.2,0,10.5-2.1,14.7-4.8c4.7-3,9.9-6.4,20.1-6.4c10.2,0,15.5,3.4,20.1,6.4c4.2,2.7,7.5,4.8,14.7,4.8
			c7.2,0,10.5-2.1,14.7-4.8c4.7-3,9.9-6.4,20.1-6.4c10.2,0,15.5,3.4,20.1,6.4c4.2,2.7,7.5,4.8,14.7,4.8c2.8,0,5,2.2,5,5
			C391.6,228.4,389.3,230.6,386.6,230.6L386.6,230.6z"/>
	</g>
	<g>
		<circle class="st3" cx="189.4" cy="220" r="64"/>
	</g>
	<g>
		<path class="st4" d="M189.4,289c-38,0-69-30.9-69-69s30.9-69,69-69s69,30.9,69,69C258.4,258.1,227.4,289,189.4,289L189.4,289z
			 M189.4,161.1c-32.5,0-59,26.5-59,59s26.5,59,59,59s59-26.5,59-59S221.9,161.1,189.4,161.1L189.4,161.1z"/>
	</g>
	<g>
		<path class="st4" d="M386.6,202.6c-10.2,0-15.5-3.4-20.1-6.4c-4.2-2.7-7.5-4.8-14.7-4.8s-10.5,2.1-14.7,4.8
			c-4.7,3-9.9,6.4-20.1,6.4s-15.5-3.4-20.1-6.4c-4.2-2.7-7.5-4.8-14.7-4.8s-10.5,2.1-14.7,4.8c-4.7,3-9.9,6.4-20.1,6.4
			c-10.2,0-15.5-3.4-20.1-6.4c-4.2-2.7-7.5-4.8-14.7-4.8c-2.8,0-5-2.2-5-5s2.2-5,5-5c10.2,0,15.5,3.4,20.1,6.4
			c4.2,2.7,7.5,4.8,14.7,4.8c7.2,0,10.5-2.1,14.7-4.8c4.7-3,9.9-6.4,20.1-6.4c10.2,0,15.5,3.4,20.1,6.4c4.2,2.7,7.5,4.8,14.7,4.8
			c7.2,0,10.5-2.1,14.7-4.8c4.7-3,9.9-6.4,20.1-6.4c10.2,0,15.5,3.4,20.1,6.4c4.2,2.7,7.5,4.8,14.7,4.8c2.8,0,5,2.2,5,5
			C391.6,200.4,389.3,202.6,386.6,202.6L386.6,202.6z"/>
	</g>
	<g>
		<path class="st4" d="M386.6,258.6c-10.2,0-15.5-3.4-20.1-6.4c-4.2-2.7-7.5-4.8-14.7-4.8s-10.5,2.1-14.7,4.8
			c-4.7,3-9.9,6.4-20.1,6.4s-15.5-3.4-20.1-6.4c-4.2-2.7-7.5-4.8-14.7-4.8s-10.5,2.1-14.7,4.8c-4.7,3-9.9,6.4-20.1,6.4
			c-10.2,0-15.5-3.4-20.1-6.4c-4.2-2.7-7.5-4.8-14.7-4.8c-2.8,0-5-2.2-5-5s2.2-5,5-5c10.2,0,15.5,3.4,20.1,6.4
			c4.2,2.7,7.5,4.8,14.7,4.8c7.2,0,10.5-2.1,14.7-4.8c4.7-3,9.9-6.4,20.1-6.4c10.2,0,15.5,3.4,20.1,6.4c4.2,2.7,7.5,4.8,14.7,4.8
			c7.2,0,10.5-2.1,14.7-4.8c4.7-3,9.9-6.4,20.1-6.4c10.2,0,15.5,3.4,20.1,6.4c4.2,2.7,7.5,4.8,14.7,4.8c2.8,0,5,2.2,5,5
			C391.6,256.4,389.3,258.6,386.6,258.6L386.6,258.6z"/>
	</g>
	<g>
		<path class="st4" d="M386.6,279.6c-2.8,0-5-2.2-5-5v-0.1c0-2.8,2.2-5,5-5s5,2.2,5,5v0.1C391.6,277.4,389.3,279.6,386.6,279.6z"/>
	</g>
	<g>
		<path class="st3" d="M134.3,165.3c-2.8,0-5-2.2-5-5v-0.1c0-2.8,2.2-5,5-5s5,2.2,5,5v0.1C139.3,163.1,137.1,165.3,134.3,165.3z"/>
	</g>
	<g>
		<path class="st4" d="M283,480.7c-1.3,0-2.6-0.5-3.5-1.5l-11-11c-2-2-2-5.1,0-7.1l11-11c2-2,5.1-2,7.1,0l11,11c2,2,2,5.1,0,7.1
			l-11,11C285.6,480.2,284.3,480.7,283,480.7z M279.1,464.7l3.9,3.9l3.9-3.9l-3.9-3.9L279.1,464.7z"/>
	</g>
	<g>
		<path class="st4" d="M130.9,64c-1.3,0-2.6-0.5-3.5-1.5l-11-11c-2-2-2-5.1,0-7.1l11-11c2-2,5.1-2,7.1,0l11,11c2,2,2,5.1,0,7.1
			l-11,11C133.5,63.5,132.2,64,130.9,64z M127,48l3.9,3.9l3.9-3.9l-3.9-3.9L127,48z"/>
	</g>
	<g>
		<path class="st3" d="M401.7,343.3H275c-5.5,0-10-4.5-10-10v-20c0-5.5,4.5-10,10-10h126.7c5.5,0,10,4.5,10,10v20
			C411.7,338.9,407.2,343.3,401.7,343.3z"/>
	</g>
	<g>
		<path class="st2" d="M401.7,303.3H372v40h29.7c5.5,0,10-4.5,10-10v-20C411.7,307.8,407.2,303.3,401.7,303.3z"/>
	</g>
	<g>
		<path class="st4" d="M401.7,348.3H275c-8.3,0-15-6.7-15-15v-20c0-8.3,6.7-15,15-15h126.7c8.3,0,15,6.7,15,15v20
			C416.7,341.6,409.9,348.3,401.7,348.3z M275,308.3c-2.8,0-5,2.2-5,5v20c0,2.8,2.2,5,5,5h126.7c2.8,0,5-2.2,5-5v-20
			c0-2.8-2.2-5-5-5H275z"/>
	</g>
	<g>
		<path class="st4" d="M244.5,343.3H108c-2.8,0-5-2.2-5-5s2.2-5,5-5h136.5c2.8,0,5,2.2,5,5C249.5,341.1,247.3,343.3,244.5,343.3z"/>
	</g>
	<g>
		<path class="st4" d="M244.5,323.3H204c-2.8,0-5-2.2-5-5s2.2-5,5-5h40.5c2.8,0,5,2.2,5,5C249.5,321.1,247.3,323.3,244.5,323.3z"/>
	</g>
	<g>
		<path class="st4" d="M215.2,486c-2.8,0-5-2.2-5-5c0-3.3-2.7-6-6-6c-2.8,0-5-2.2-5-5s2.2-5,5-5c3.3,0,6-2.7,6-6c0-2.8,2.2-5,5-5
			s5,2.2,5,5c0,3.3,2.7,6,6,6c2.8,0,5,2.2,5,5s-2.2,5-5,5c-3.3,0-6,2.7-6,6C220.2,483.8,218,486,215.2,486z"/>
	</g>
	<g>
		<path class="st4" d="M339.6,65c-2.8,0-5-2.2-5-5c0-3.3-2.7-6-6-6c-2.8,0-5-2.2-5-5s2.2-5,5-5c3.3,0,6-2.7,6-6c0-2.8,2.2-5,5-5
			s5,2.2,5,5c0,3.3,2.7,6,6,6c2.8,0,5,2.2,5,5s-2.2,5-5,5c-3.3,0-6,2.7-6,6C344.6,62.7,342.4,65,339.6,65z"/>
	</g>
	<g>
		<path class="st4" d="M385.6,54c-2.8,0-5-2.2-5-5c0-3.3-2.7-6-6-6c-2.8,0-5-2.2-5-5s2.2-5,5-5c3.3,0,6-2.7,6-6c0-2.8,2.2-5,5-5
			s5,2.2,5,5c0,3.3,2.7,6,6,6c2.8,0,5,2.2,5,5s-2.2,5-5,5c-3.3,0-6,2.7-6,6C390.6,51.7,388.4,54,385.6,54z"/>
	</g>
	<g>
		<path class="st4" d="M469.5,79h-17.1c-4.5,0-8.4,3.1-9.4,7.6c-1.2,5.3-6,9.2-11.5,9.2s-10.3-3.8-11.5-9.2c-1-4.5-4.9-7.6-9.4-7.6
			h-8.3c-4.5,0-8.4,3.1-9.4,7.6c-1.2,5.3-6,9.2-11.5,9.2s-10.3-3.8-11.5-9.2c-1-4.5-4.9-7.6-9.4-7.6h-8.3c-4.5,0-8.4,3.1-9.4,7.6
			c-1.2,5.3-6,9.2-11.5,9.2s-10.3-3.8-11.5-9.2c-1-4.5-4.9-7.6-9.4-7.6H302c-4.5,0-8.4,3.1-9.4,7.6c-1.2,5.3-6,9.2-11.5,9.2
			s-10.3-3.8-11.5-9.2c-1-4.5-4.9-7.6-9.4-7.6h-8.3c-4.5,0-8.4,3.1-9.4,7.6c-1.2,5.3-6,9.2-11.5,9.2s-10.3-3.8-11.5-9.2
			c-1-4.5-4.9-7.6-9.4-7.6h-8.3c-4.5,0-8.4,3.1-9.4,7.6c-1.2,5.3-6,9.2-11.5,9.2s-10.3-3.8-11.5-9.2c-1-4.5-4.9-7.6-9.4-7.6h-8.3
			c-4.5,0-8.4,3.1-9.4,7.6c-1.2,5.3-6,9.2-11.5,9.2s-10.3-3.8-11.5-9.2c-1-4.5-4.9-7.6-9.4-7.6h-8.3c-4.5,0-8.4,3.1-9.4,7.6
			c-1.2,5.3-6,9.2-11.5,9.2S70.2,91.9,69,86.6c-1-4.5-4.9-7.6-9.4-7.6H42.5c-5.3,0-9.7,4.3-9.7,9.7v20.7c0,4.5,3.1,8.4,7.6,9.4
			c5.1,1.2,8.6,5.7,8.6,10.9c0,5.2-3.5,9.7-8.6,10.9c-4.5,1-7.6,4.9-7.6,9.4v7.8c0,4.5,3.1,8.4,7.6,9.4c5.1,1.2,8.6,5.7,8.6,10.9
			s-3.5,9.7-8.6,10.9c-4.5,1-7.6,4.9-7.6,9.4v7.8c0,4.5,3.1,8.4,7.6,9.4c5.1,1.2,8.6,5.7,8.6,10.9s-3.5,9.7-8.6,10.9
			c-4.5,1-7.6,4.9-7.6,9.4v7.8c0,4.5,3.1,8.4,7.6,9.4c5.1,1.2,8.6,5.7,8.6,10.9c0,5.2-3.5,9.7-8.6,10.9c-4.5,1-7.6,4.9-7.6,9.4v7.8
			c0,4.5,3.1,8.4,7.6,9.4c5.1,1.2,8.6,5.7,8.6,10.9c0,5.2-3.6,9.7-8.6,10.9c-4.5,1-7.6,4.9-7.6,9.4v6.9c0,5.2,3,9.2,7.6,10.3
			c5.1,1.2,8.6,5.7,8.6,10.9c0,5.2-3.5,9.7-8.6,10.9c-4.5,1-7.6,4.9-7.6,9.4V413c0,5.3,4.3,9.7,9.7,9.7h17.1c4.5,0,8.4-3.1,9.4-7.6
			c1.2-5.3,6-9.2,11.5-9.2s10.3,3.8,11.5,9.2c1,4.5,4.9,7.6,9.4,7.6h8.3c4.5,0,8.4-3.1,9.4-7.6c1.2-5.3,6-9.2,11.5-9.2
			s10.3,3.8,11.5,9.2c1,4.5,4.9,7.6,9.4,7.6h8.3c2.8,0,5-2.2,5-5s-2.2-5-5-5h-8c-2.3-9.9-11-16.8-21.2-16.8
			c-10.2,0-18.9,6.9-21.2,16.8h-7.8c-2.3-9.9-11-16.8-21.2-16.8c-10.2,0-18.9,6.9-21.2,16.8H42.8v-20.1c9.5-2.3,16.2-10.8,16.2-20.6
			c0-9.8-6.6-18.3-16.1-20.6c0-0.1-0.1-0.3-0.1-0.6v-6.6c9.5-2.3,16.2-10.8,16.2-20.6c0-9.8-6.7-18.3-16.2-20.6v-7.2
			C52.4,293.3,59,284.9,59,275c0-9.8-6.7-18.3-16.2-20.6v-7.2c9.5-2.3,16.2-10.8,16.2-20.6c0-9.8-6.7-18.3-16.2-20.6v-7.2
			C52.4,196.4,59,188,59,178.1c0-9.8-6.7-18.3-16.2-20.6v-7.2C52.4,148,59,139.5,59,129.7c0-9.8-6.7-18.3-16.2-20.6V89h16.5
			c2.3,9.9,11,16.8,21.2,16.8c10.2,0,18.9-6.9,21.2-16.8h7.8c2.3,9.9,11,16.8,21.2,16.8c10.2,0,18.9-6.9,21.2-16.8h7.8
			c2.3,9.9,11,16.8,21.2,16.8S199.7,98.8,202,89h7.8c2.3,9.9,11,16.8,21.2,16.8s18.9-6.9,21.2-16.8h7.8c2.3,9.9,11,16.8,21.2,16.8
			c10.2,0,18.9-6.9,21.2-16.8h7.8c2.3,9.9,11,16.8,21.2,16.8c10.2,0,18.9-6.9,21.2-16.8h7.8c2.3,9.9,11,16.8,21.2,16.8
			s18.9-6.9,21.2-16.8h7.8c2.3,9.9,11,16.8,21.2,16.8c10.2,0,18.9-6.9,21.2-16.8h16.5v20.4c0,2.8,2.2,5,5,5s5-2.2,5-5V88.6
			C479.2,83.3,474.9,79,469.5,79L469.5,79z"/>
	</g>
	<g>
		<path class="st4" d="M474.2,145c-2.8,0-5,2.2-5,5v7.5c-9.5,2.3-16.2,10.8-16.2,20.6c0,9.8,6.7,18.3,16.2,20.6v7.2
			c-9.5,2.3-16.2,10.8-16.2,20.6c0,9.8,6.7,18.3,16.2,20.6v7.2c-9.5,2.3-16.2,10.8-16.2,20.6c0,9.8,6.7,18.3,16.2,20.6v7.2
			c-9.5,2.3-16.2,10.8-16.2,20.6c0,9.8,6.7,18.3,16.2,20.6v7.2c-9.5,2.3-16.2,10.8-16.2,20.6c0,9.8,6.7,18.3,16.2,20.6v20.1h-16.5
			c-2.3-9.9-11-16.8-21.2-16.8c-10.2,0-18.9,6.9-21.2,16.8h-7.8c-2.3-9.9-11-16.8-21.2-16.8s-18.9,6.9-21.2,16.8h-7.8
			c-2.3-9.9-11-16.8-21.2-16.8c-10.2,0-18.9,6.9-21.2,16.8h-7.8c-2.3-9.9-11-16.8-21.2-16.8c-10.2,0-18.9,6.9-21.2,16.8h-7.8
			c-2.3-9.9-11-16.8-21.2-16.8c-10.2,0-18.9,6.9-21.2,16.8h-8c-2.8,0-5,2.2-5,5s2.2,5,5,5h8.3c4.5,0,8.4-3.1,9.4-7.6
			c1.2-5.3,6-9.2,11.5-9.2s10.3,3.8,11.5,9.2c1,4.5,4.9,7.6,9.4,7.6h8.3c4.5,0,8.4-3.1,9.4-7.6c1.2-5.3,6-9.2,11.5-9.2
			s10.3,3.8,11.5,9.2c1,4.5,4.9,7.6,9.4,7.6h8.3c4.5,0,8.4-3.1,9.4-7.6c1.2-5.3,6-9.2,11.5-9.2s10.3,3.8,11.5,9.2
			c1,4.5,4.9,7.6,9.4,7.6h8.3c4.5,0,8.4-3.1,9.4-7.6c1.2-5.3,6-9.2,11.5-9.2s10.3,3.8,11.5,9.2c1,4.5,4.9,7.6,9.4,7.6h8.3
			c4.5,0,8.4-3.1,9.4-7.6c1.2-5.3,6-9.2,11.5-9.2s10.3,3.8,11.5,9.2c1,4.5,4.9,7.6,9.4,7.6h17.1c5.3,0,9.7-4.3,9.7-9.7v-20.7
			c0-4.5-3.1-8.4-7.6-9.4c-5.1-1.2-8.6-5.7-8.6-10.9s3.5-9.7,8.6-10.9c4.5-1,7.6-4.9,7.6-9.4v-7.8c0-4.5-3.1-8.4-7.6-9.4
			c-5.1-1.2-8.6-5.7-8.6-10.9s3.5-9.7,8.6-10.9c4.5-1,7.6-4.9,7.6-9.4v-7.8c0-4.5-3.1-8.4-7.6-9.4c-5.1-1.2-8.6-5.7-8.6-10.9
			s3.5-9.7,8.6-10.9c4.5-1,7.6-4.9,7.6-9.4v-7.8c0-4.5-3.1-8.4-7.6-9.4c-5.1-1.2-8.6-5.7-8.6-10.9s3.5-9.7,8.6-10.9
			c4.5-1,7.6-4.9,7.6-9.4v-7.8c0-4.5-3.1-8.4-7.6-9.4c-5.1-1.2-8.6-5.7-8.6-10.9c0-5.2,3.5-9.7,8.6-10.9c4.5-1,7.6-4.9,7.6-9.4V150
			C479.2,147.3,476.9,145,474.2,145L474.2,145z"/>
	</g>
	<path class="st5" d="M429,144.8v212.1c0,5.1-4.2,9.3-9.3,9.3H92.3c-5.1,0-9.3-4.2-9.3-9.3V144.8c0-5.1,4.2-9.3,9.3-9.3h327.4
		C424.8,135.4,429,139.6,429,144.8z"/>
</g>
</svg>
