<?xml version="1.0" encoding="utf-8"?>
<!-- Generator: Adobe Illustrator 24.2.1, SVG Export Plug-In . SVG Version: 6.00 Build 0)  -->
<svg version="1.1" id="Capa_1" xmlns="http://www.w3.org/2000/svg" xmlns:xlink="http://www.w3.org/1999/xlink" x="0px" y="0px"
	 viewBox="0 0 512 512" style="enable-background:new 0 0 512 512;" xml:space="preserve">
<style type="text/css">
	.st0{fill:url(#SVGID_1_);}
	.st1{opacity:0.2;}
	.st2{fill:#6583FE;}
	.st3{fill:#FFFFFF;}
	.st4{fill:#1AB394;}
</style>
<g>
	<g>
		
			<linearGradient id="SVGID_1_" gradientUnits="userSpaceOnUse" x1="23.8207" y1="170.7308" x2="459.531" y2="422.289" gradientTransform="matrix(1 0 0 -1 0 514)">
			<stop  offset="0" style="stop-color:#D2DEFF;stop-opacity:0"/>
			<stop  offset="1" style="stop-color:#1AB394"/>
		</linearGradient>
		<path class="st0" d="M16.1,302.9c18.7,64,72.7,194.6,163.9,182.8C271.5,474,235.8,356,319.5,339.8c36.9-7.1,61.9,56.7,98.8,54.7
			c47.6-2.6,71.8-49.7,85.1-89.3c28.2-84-14-226.4-112.9-251c-86.2-21.5-96.3,83.9-171.3,53.2c-42.1-17.2-37.9-68.6-89.3-78.9
			C-25.3-2.8-8.8,217.7,16.1,302.9z"/>
	</g>
	<g>
		<g>
			<g class="st1">
				<path class="st2" d="M196,320.8l-8.1,8.1c-2,2-2,5.1,0,7.1c1,1,2.3,1.5,3.5,1.5s2.6-0.5,3.5-1.5l8.1-8.1c2-2,2-5.1,0-7.1
					C201.2,318.9,198,318.9,196,320.8z"/>
				<path class="st2" d="M222,294.9l-8.1,8.1c-2,2-2,5.1,0,7.1c1,1,2.3,1.5,3.5,1.5s2.6-0.5,3.5-1.5l8.1-8.1c2-2,2-5.1,0-7.1
					C227.1,292.9,224,292.9,222,294.9z"/>
				<path class="st2" d="M248,268.9l-8.1,8.1c-2,2-2,5.1,0,7.1c1,1,2.3,1.5,3.5,1.5s2.6-0.5,3.5-1.5l8.1-8.1c2-2,2-5.1,0-7.1
					C253.1,266.9,249.9,266.9,248,268.9z"/>
				<path class="st2" d="M274,242.9l-8.1,8.1c-2,2-2,5.1,0,7.1c1,1,2.3,1.5,3.5,1.5s2.6-0.5,3.5-1.5l8.1-8.1c2-2,2-5.1,0-7.1
					C279.1,241,275.9,241,274,242.9L274,242.9z"/>
				<path class="st2" d="M299.9,216.9l-8.1,8.1c-2,2-2,5.1,0,7.1c1,1,2.3,1.5,3.5,1.5s2.6-0.5,3.5-1.5l8.1-8.1c2-2,2-5.1,0-7.1
					C305,215,301.9,215,299.9,216.9z"/>
				<path class="st2" d="M325.9,191l-8.1,8.1c-2,2-2,5.1,0,7.1c1,1,2.3,1.5,3.5,1.5s2.6-0.5,3.5-1.5l8.1-8.1c2-2,2-5.1,0-7.1
					C331,189,327.9,189,325.9,191z"/>
				<path class="st2" d="M424.2,104.7c1.3,0,2.6-0.5,3.5-1.5l8.1-8.1c2-2,2-5.1,0-7.1c-2-2-5.1-2-7.1,0l-8.1,8.1c-2,2-2,5.1,0,7.1
					C421.7,104.2,423,104.7,424.2,104.7z"/>
				<path class="st2" d="M461.9,62c-2-2-5.1-2-7.1,0l-8.1,8.1c-2,2-2,5.1,0,7.1c1,1,2.3,1.5,3.5,1.5s2.6-0.5,3.5-1.5l8.1-8.1
					C463.8,67.2,463.8,64,461.9,62z"/>
				<path class="st2" d="M67.1,449.7l-8.1,8.1c-2,2-2,5.1,0,7.1c1,1,2.3,1.5,3.5,1.5s2.6-0.5,3.5-1.5l8.1-8.1c2-2,2-5.1,0-7.1
					C72.2,447.8,69.1,447.8,67.1,449.7z"/>
				<path class="st2" d="M93.1,423.8l-8.1,8.1c-2,2-2,5.1,0,7.1c1,1,2.3,1.5,3.5,1.5s2.6-0.5,3.5-1.5l8.1-8.1c2-2,2-5.1,0-7.1
					C98.2,421.8,95,421.8,93.1,423.8z"/>
				<path class="st2" d="M447.4,363.3h-45V142.6c0-4.5-1.4-8.6-3.8-12c1.2-0.1,2.3-0.5,3.2-1.4l8.1-8.1c2-2,2-5.1,0-7.1
					c-2-2-5.1-2-7.1,0l-8.1,8.1c-0.9,0.9-1.3,2-1.4,3.2c-3.4-2.4-7.5-3.8-12-3.8H160.6V76.5c0-2.8-2.2-5-5-5h-32.2c-2.8,0-5,2.2-5,5
					v45.1H73.4c-2.8,0-5,2.2-5,5v32.2c0,2.8,2.2,5,5,5h45.1v220.7c0,4.5,1.4,8.6,3.8,12c-1.2,0.1-2.3,0.5-3.2,1.4l-8.1,8.1
					c-2,2-2,5.1,0,7.1c1,1,2.3,1.5,3.5,1.5s2.6-0.5,3.5-1.5l8.1-8.1c0.9-0.9,1.3-2,1.4-3.2c3.4,2.4,7.5,3.8,12,3.8h220.7v45
					c0,2.8,2.2,5,5,5h32.2c2.8,0,5-2.2,5-5v-45h45c2.8,0,5-2.2,5-5v-32.2C452.4,365.5,450.2,363.3,447.4,363.3L447.4,363.3z
					 M360.2,167.3c-0.2-0.8-0.6-1.6-1.3-2.3s-1.4-1.1-2.3-1.3h3.6V167.3z M160.6,359.7c0.2,0.8,0.6,1.6,1.3,2.3s1.4,1.1,2.3,1.3
					h-3.6L160.6,359.7z M166.7,363.3c0.8-0.2,1.6-0.6,2.3-1.3l8.1-8.1c2-2,2-5.1,0-7.1c-2-2-5.1-2-7.1,0l-8.1,8.1
					c-0.7,0.6-1.1,1.4-1.3,2.3V163.7h193.5c-0.8,0.2-1.6,0.6-2.3,1.3l-8.1,8.1c-2,2-2,5.1,0,7.1c1,1,2.3,1.5,3.5,1.5
					s2.6-0.5,3.5-1.5l8.1-8.1c0.7-0.6,1.1-1.4,1.3-2.3v193.5L166.7,363.3z"/>
			</g>
			<g>
				<g>
					<path class="st3" d="M452.4,348.3v32.2c0,2.8-2.2,5-5,5H139.6c-11.6,0-21.1-9.4-21.1-21.1V56.5c0-2.8,2.2-5,5-5h32.2
						c2.8,0,5,2.2,5,5v286.8h286.8C450.2,343.3,452.4,345.5,452.4,348.3L452.4,348.3z"/>
				</g>
				<g>
					<path class="st3" d="M402.4,122.6v220.7h-42.2V143.7H73.4c-2.8,0-5-2.2-5-5v-32.2c0-2.8,2.2-5,5-5h307.9
						C392.9,101.6,402.4,111,402.4,122.6L402.4,122.6z"/>
					<path class="st3" d="M402.4,385.5v45c0,2.8-2.2,5-5,5h-32.2c-2.8,0-5-2.2-5-5v-45H402.4z"/>
				</g>
				<g>
					<path class="st4" d="M447.4,338.3h-82.2V143.7c0-2.8-2.2-5-5-5H194.6c-2.8,0-5,2.2-5,5s2.2,5,5,5h153.5l-4.4,4.4
						c-2,2-2,5.1,0,7.1c1,1,2.3,1.5,3.5,1.5s2.6-0.5,3.5-1.5l4.4-4.4v182.5H172.7l4.4-4.4c2-2,2-5.1,0-7.1c-2-2-5.1-2-7.1,0
						l-4.4,4.4V143.7c0-2.8-2.2-5-5-5H73.4v-32.2h307.9c8.9,0,16.1,7.2,16.1,16.1v188.5c0,2.8,2.2,5,5,5s5-2.2,5-5V122.6
						c0-5.4-1.6-10.4-4.5-14.6l7-7c2-2,2-5.1,0-7.1c-2-2-5.1-2-7.1,0l-7,7c-4.2-2.8-9.2-4.5-14.6-4.5H165.6v-40c0-5.5-4.5-10-10-10
						h-32.2c-5.5,0-10,4.5-10,10v40h-40c-5.5,0-10,4.5-10,10v32.2c0,5.5,4.5,10,10,10h40v215.7c0,5.4,1.6,10.4,4.5,14.6l-7,7
						c-2,2-2,5.1,0,7.1c1,1,2.3,1.5,3.5,1.5s2.6-0.5,3.5-1.5l7-7c4.2,2.8,9.2,4.5,14.6,4.5h215.7v40c0,5.5,4.5,10,10,10h32.2
						c5.5,0,10-4.5,10-10v-40h40c5.5,0,10-4.5,10-10v-32.2C457.4,342.8,452.9,338.3,447.4,338.3z M123.5,56.5h32.2v40.1h-32.2V56.5z
						 M397.4,430.5h-32.2v-40h32.2V430.5z M447.4,380.5H139.6c-8.9,0-16.1-7.2-16.1-16.1V148.7h32.2v194.6c0,2.8,2.2,5,5,5h286.8
						L447.4,380.5z"/>
					<path class="st4" d="M191.4,317.5c1.3,0,2.6-0.5,3.5-1.5l8.1-8.1c2-2,2-5.1,0-7.1c-2-2-5.1-2-7.1,0l-8.1,8.1c-2,2-2,5.1,0,7.1
						C188.9,317,190.2,317.5,191.4,317.5z"/>
					<path class="st4" d="M220.9,290.1l8.1-8.1c2-2,2-5.1,0-7.1c-2-2-5.1-2-7.1,0l-8.1,8.1c-2,2-2,5.1,0,7.1c1,1,2.3,1.5,3.5,1.5
						C218.7,291.5,220,291,220.9,290.1z"/>
					<path class="st4" d="M246.9,264.1l8.1-8.1c2-2,2-5.1,0-7.1c-2-2-5.1-2-7.1,0l-8.1,8.1c-2,2-2,5.1,0,7.1c1,1,2.3,1.5,3.5,1.5
						S245.9,265.1,246.9,264.1z"/>
					<path class="st4" d="M272.9,238.1l8.1-8.1c2-2,2-5.1,0-7.1c-2-2-5.1-2-7.1,0l-8.1,8.1c-2,2-2,5.1,0,7.1c1,1,2.3,1.5,3.5,1.5
						S271.9,239.1,272.9,238.1z"/>
					<path class="st4" d="M298.9,212.1l8.1-8.1c2-2,2-5.1,0-7.1c-2-2-5.1-2-7.1,0l-8.1,8.1c-2,2-2,5.1,0,7.1c1,1,2.3,1.5,3.5,1.5
						S297.9,213.1,298.9,212.1z"/>
					<path class="st4" d="M324.8,186.2l8.1-8.1c2-2,2-5.1,0-7.1c-2-2-5.1-2-7.1,0l-8.1,8.1c-2,2-2,5.1,0,7.1c1,1,2.3,1.5,3.5,1.5
						S323.9,187.1,324.8,186.2z"/>
					<path class="st4" d="M424.2,84.7c1.3,0,2.6-0.5,3.5-1.5l8.1-8.1c2-2,2-5.1,0-7.1c-2-2-5.1-2-7.1,0l-8.1,8.1c-2,2-2,5.1,0,7.1
						C421.7,84.2,423,84.7,424.2,84.7z"/>
					<path class="st4" d="M461.9,42c-2-2-5.1-2-7.1,0l-8.1,8.1c-2,2-2,5.1,0,7.1c1,1,2.3,1.5,3.5,1.5s2.6-0.5,3.5-1.5l8.1-8.1
						C463.8,47.2,463.8,44,461.9,42z"/>
					<path class="st4" d="M67.1,429.7l-8.1,8.1c-2,2-2,5.1,0,7.1c1,1,2.3,1.5,3.5,1.5s2.6-0.5,3.5-1.5l8.1-8.1c2-2,2-5.1,0-7.1
						C72.2,427.8,69.1,427.8,67.1,429.7z"/>
					<path class="st4" d="M93.1,403.8l-8.1,8.1c-2,2-2,5.1,0,7.1c1,1,2.3,1.5,3.5,1.5s2.6-0.5,3.5-1.5l8.1-8.1c2-2,2-5.1,0-7.1
						C98.2,401.8,95,401.8,93.1,403.8L93.1,403.8z"/>
				</g>
			</g>
		</g>
		<g>
			<path class="st4" d="M59.7,205.2c-2.8,0-5-2.2-5-5c0-3.3-2.7-6-6-6c-2.8,0-5-2.2-5-5s2.2-5,5-5c3.3,0,6-2.7,6-6c0-2.8,2.2-5,5-5
				s5,2.2,5,5c0,3.3,2.7,6,6,6c2.8,0,5,2.2,5,5s-2.2,5-5,5c-3.3,0-6,2.7-6,6C64.7,203,62.4,205.2,59.7,205.2z"/>
			<path class="st4" d="M445.2,294.4c-2.8,0-5-2.2-5-5c0-3.3-2.7-6-6-6c-2.8,0-5-2.2-5-5s2.2-5,5-5c3.3,0,6-2.7,6-6c0-2.8,2.2-5,5-5
				s5,2.2,5,5c0,3.3,2.7,6,6,6c2.8,0,5,2.2,5,5s-2.2,5-5,5c-3.3,0-6,2.7-6,6C450.2,292.2,448,294.4,445.2,294.4z"/>
			<path class="st4" d="M321.3,453.4c-2.8,0-5-2.2-5-5c0-3.3-2.7-6-6-6c-2.8,0-5-2.2-5-5s2.2-5,5-5c3.3,0,6-2.7,6-6c0-2.8,2.2-5,5-5
				s5,2.2,5,5c0,3.3,2.7,6,6,6c2.8,0,5,2.2,5,5s-2.2,5-5,5c-3.3,0-6,2.7-6,6C326.3,451.1,324.1,453.4,321.3,453.4z"/>
			<path class="st4" d="M445.2,162.6c-1.3,0-2.6-0.5-3.5-1.5c-2-2-2-5.1,0-7.1l10-10c2-2,5.1-2,7.1,0c2,2,2,5.1,0,7.1l-10,10
				C447.8,162.1,446.5,162.6,445.2,162.6z"/>
			<path class="st4" d="M83.5,244.6c-1.3,0-2.6-0.5-3.5-1.5c-2-2-2-5.1,0-7.1l10-10c2-2,5.1-2,7.1,0c2,2,2,5.1,0,7.1l-10,10
				C86.1,244.1,84.8,244.6,83.5,244.6z"/>
		</g>
	</g>
</g>
</svg>
