<?xml version="1.0" encoding="utf-8"?>
<!-- Generator: Adobe Illustrator 24.2.1, SVG Export Plug-In . SVG Version: 6.00 Build 0)  -->
<svg version="1.1" id="Capa_1" xmlns="http://www.w3.org/2000/svg" xmlns:xlink="http://www.w3.org/1999/xlink" x="0px" y="0px"
	 viewBox="0 0 512 512" style="enable-background:new 0 0 512 512;" xml:space="preserve">
<style type="text/css">
	.st0{fill:url(#SVGID_1_);}
	.st1{opacity:0.1;fill:#1AB394;enable-background:new    ;}
	.st2{fill:#00EAAB;}
	.st3{fill:#FFFFFF;}
	.st4{fill:#1AB394;}
</style>
<g>
	<g>
		<g>
			
				<linearGradient id="SVGID_1_" gradientUnits="userSpaceOnUse" x1="5.4003" y1="257.9995" x2="506.6019" y2="257.9995" gradientTransform="matrix(1 0 0 -1 0 514)">
				<stop  offset="0" style="stop-color:#D2DEFF;stop-opacity:0"/>
				<stop  offset="1" style="stop-color:#1AB394"/>
			</linearGradient>
			<path class="st0" d="M461.2,27.4c-63.8-38-146.3-35.9-208.9,3c-35.2,21.9-62.4,53.4-93.2,80.6c-27,23.8-58.4,40.8-86.4,63.2
				c-101.2,81.4-91.6,301,51,330.1c61.8,12.6,146.2,16.7,182.5-43.6c34.6-57.5,46.2-116.4,113.9-146.9c23.6-10.6,63-10.1,78.9-33.5
				c20.2-29.5-4.9-60-18.2-85.7c-17.2-33.1-20.8-65.7-8.7-101.2C482.4,63.2,489.7,49.6,461.2,27.4L461.2,27.4z"/>
		</g>
		<g>
			<path class="st1" d="M457.5,172.7c0-44.1-35.7-79.8-79.8-79.8c-14,0-27.2,3.6-38.7,10c-25.2-11.9-53.4-18.5-83.1-18.5
				C148,84.4,60.4,172,60.4,280S148,475.6,256,475.6S451.6,388,451.6,280c0-21-3.3-41.2-9.4-60.2
				C451.8,206.6,457.5,190.3,457.5,172.7L457.5,172.7z"/>
			<g>
				<circle class="st2" cx="256" cy="256" r="195.6"/>
				<g>
					<path class="st3" d="M210.3,421.2c-1.1,5.5,0.7,16.9,0.7,25.1c-21-4.9-40.6-13.2-58.4-24.3c-6.6-17.3-3.3-34.6-3.9-54.6
						c-0.9-28.3-18-29.6-38.9-42.4c-17.4-10.6-33.4-21.4-46.2-33.7c-2.1-11.5-3.2-23.3-3.2-35.3c0-39,11.4-75.4,31.1-105.9
						c3.4,4.4,8.4,5.8,16.9,6.2c5.2-5.3,10.7-6.5,16.5-3.8c0.8,1.9,1.6,3.8,2.5,5.7c-0.5,4.2,0.7,7.9,3.5,11
						c6,0.9,11.9,0.2,17.6-2.2c8.5-1.7,18-7.4,26.7-7.7c35.6-1.1,12.9,23.5,2.1,39.3c-12.3,18-17.8,43.6-40.6,52
						c-16.7,6.1-36.9-2.2-37.7,24c-0.6,20.7,23.4,42.6,41.5,48.9c22.1,7.6,50.6-3.7,72.1,9.4c16.2,9.8,11.8,41.8,7.8,60.6
						C218.4,402.9,212.3,411.3,210.3,421.2z"/>
				</g>
				<g>
					<path class="st3" d="M236.4,107.3c-4.9,7.3-12.5,13.1-14.9,21.6c-2.5,9,1.1,20.3-5.5,27c-10.2-6.9-14.7-20.1-14.2-32.5
						c0.3-7.3,1.4-16.1-4.5-20.5c-5.2-3.8-14.6-2.8-16.4-9c-0.8-2.7,0.4-5.6-0.5-8.3c-1-2.9-4.1-4.3-6.4-6.3
						c-0.2-0.2-0.4-0.4-0.6-0.6c21.7-10.1,45.5-16.4,70.6-18C244.8,76.8,245.3,94,236.4,107.3L236.4,107.3z"/>
				</g>
				<g>
					<path class="st3" d="M451.5,256c0,79.1-47,147.2-114.5,178c2.5-7.5,7.4-14.6,11-21.7c6.5-12.5,9.5-26.6,11.1-40.6
						c0.9-7.5,0.6-16.6-5.9-20.5c-3.4-2-7.5-1.9-11.5-1.9c-6.9-0.1-13.8-1-20.6-2.5c-7.2-1.7-14.7-4.4-19.3-10.3
						c-6.9-8.7-5.6-21.1-3.9-32.1c1.8-11.3,3.5-22.5,5.3-33.8c1.5-9.3,4.1-20.1,12.9-23.6c6-2.3,12.7-0.2,19.1,0.3
						c18.9,1.4,36.4-12,55.3-11c3.3,0.2,6.7,0.8,9.9-0.1c2.3-0.6,4.3-2,6.1-3.6c9.9-9.3,9.6-25.1,6.7-38.4c-1.3-5.8-3-11.8-7.1-16.2
						c-4.1-4.4-11-6.6-16.2-3.5c-8.3,4.9-7.4,19.6-16.5,22.6c-8,2.7-16.4-6.7-24.5-4.3c-11.3,3.4-7.1,23.2-17.1,29.4
						c-5.2,3.2-12,1.2-17.5-1.6c-6.8-3.5-13.5-8.9-14.4-16.5c-1.2-10.1,8.3-17.9,17-23s19-10.7,21-20.6c0.7-3.3,0.3-6.7,1-10
						c2-9.6,12.1-15,21.4-18s19.7-5.3,25.9-12.8c1.5-1.8,2.7-3.9,3.8-5.9C428,149.5,451.5,200,451.5,256L451.5,256z"/>
				</g>
			</g>
			<g>
				<path class="st4" d="M420.3,462.3c-1.3,0-2.6-0.5-3.5-1.5l-11-11c-2-2-2-5.1,0-7.1l11-11c2-2,5.1-2,7.1,0l11,11c2,2,2,5.1,0,7.1
					l-11,11C422.9,461.9,421.6,462.3,420.3,462.3z M416.4,446.3l3.9,3.9l3.9-3.9l-3.9-3.9L416.4,446.3z"/>
				<path class="st4" d="M71.4,425.2c-1.3,0-2.6-0.5-3.5-1.5l-11-11c-2-2-2-5.1,0-7.1l11-11c2-2,5.1-2,7.1,0l11,11c2,2,2,5.1,0,7.1
					l-11,11C74,424.7,72.7,425.2,71.4,425.2z M67.5,409.2l3.9,3.9l3.9-3.9l-3.9-3.9L67.5,409.2z"/>
				<path class="st4" d="M76.4,105.7c-2.8,0-5-2.2-5-5c0-3.3-2.7-6-6-6c-2.8,0-5-2.2-5-5s2.2-5,5-5c3.3,0,6-2.7,6-6c0-2.8,2.2-5,5-5
					s5,2.2,5,5c0,3.3,2.7,6,6,6c2.8,0,5,2.2,5,5s-2.2,5-5,5c-3.3,0-6,2.7-6,6C81.4,103.4,79.2,105.7,76.4,105.7z"/>
				<path class="st4" d="M451.5,405c-2.8,0-5-2.2-5-5c0-3.3-2.7-6-6-6c-2.8,0-5-2.2-5-5s2.2-5,5-5c3.3,0,6-2.7,6-6c0-2.8,2.2-5,5-5
					s5,2.2,5,5c0,3.3,2.7,6,6,6c2.8,0,5,2.2,5,5s-2.2,5-5,5c-3.3,0-6,2.7-6,6C456.5,402.8,454.3,405,451.5,405z"/>
				<path class="st4" d="M119.2,78.9c-2.8,0-5-2.2-5-5c0-3.3-2.7-6-6-6c-2.8,0-5-2.2-5-5s2.2-5,5-5c3.3,0,6-2.7,6-6c0-2.8,2.2-5,5-5
					s5,2.2,5,5c0,3.3,2.7,6,6,6c2.8,0,5,2.2,5,5s-2.2,5-5,5c-3.3,0-6,2.7-6,6C124.2,76.7,121.9,78.9,119.2,78.9z"/>
			</g>
			<g>
				<g>
					<g>
						<g>
							<g>
								<g>
									<g>
										<g>
											<path class="st3" d="M328.6,328.3h-69.8c-44.1,0-79.8-35.7-79.8-79.8c0-44.1,35.7-79.8,79.8-79.8
												c44.1,0,79.8,35.7,79.8,79.8v69.8C338.6,323.8,334.2,328.3,328.6,328.3z"/>
										</g>
									</g>
								</g>
							</g>
						</g>
					</g>
					<g>
						<path class="st4" d="M289.6,293.7c-2,0-3.9-1.2-4.7-3.2l-26.1-68.3l-26.1,68.3c-1,2.6-3.9,3.9-6.5,2.9c-2.6-1-3.9-3.9-2.9-6.5
							l30.7-80.5c0.7-1.9,2.6-3.2,4.7-3.2s3.9,1.3,4.7,3.2l30.7,80.5c1,2.6-0.3,5.5-2.9,6.5C290.8,293.6,290.2,293.7,289.6,293.7
							L289.6,293.7z"/>
						<path class="st4" d="M261.9,271.7h-23.8c-2.8,0-5-2.2-5-5s2.2-5,5-5h23.8c2.8,0,5,2.2,5,5S264.6,271.7,261.9,271.7z"/>
					</g>
				</g>
				<g>
					<g>
						<g>
							<path class="st3" d="M308,228.4h69.8c44.1,0,79.8-35.7,79.8-79.8s-35.7-79.8-79.8-79.8c-44.1,0-79.8,35.7-79.8,79.8v69.8
								C298,224,302.5,228.4,308,228.4L308,228.4z"/>
						</g>
					</g>
					<g>
						<path class="st4" d="M377.8,133c-2.8,0-5-2.2-5-5v-21.8c0-2.8,2.2-5,5-5s5,2.2,5,5V128C382.8,130.8,380.5,133,377.8,133z"/>
						<path class="st4" d="M417.1,135.6h-78.7c-2.8,0-5-2.2-5-5s2.2-5,5-5h78.7c2.8,0,5,2.2,5,5
							C422.1,133.4,419.9,135.6,417.1,135.6L417.1,135.6z"/>
						<path class="st4" d="M347.6,196.2c-2.3,0-4.4-1.6-4.9-4c-0.6-2.7,1.2-5.4,3.9-5.9c20.6-4.3,35.1-15,43.3-31.8
							c6.1-12.6,6.2-23.8,6.2-23.9c0-2.8,2.2-5,5-5s5,2.2,5,5c0,0.6-0.1,13.7-7.2,28.3c-6.6,13.6-20.6,31-50.2,37.2
							C348.3,196.1,348,196.2,347.6,196.2L347.6,196.2z"/>
						<path class="st4" d="M407.1,196.2c-0.3,0-0.6,0-0.9-0.1c-34.1-6.3-47.5-36.7-48.1-38c-1.1-2.5,0.1-5.5,2.6-6.6
							c2.5-1.1,5.5,0.1,6.6,2.6c0.1,0.3,11.9,26.8,40.7,32.1c2.7,0.5,4.5,3.1,4,5.8C411.5,194.5,409.4,196.2,407.1,196.2
							L407.1,196.2z"/>
					</g>
				</g>
			</g>
		</g>
	</g>
	<path class="st4" d="M462.5,148.7c0-16.5-4.7-32.5-13.7-46.2c-1.5-2.3-4.6-3-6.9-1.5c-2.3,1.5-3,4.6-1.5,6.9
		c7.9,12.1,12.1,26.2,12.1,40.8c0,41.2-33.5,74.8-74.8,74.8H308c-2.8,0-5-2.2-5-5v-69.8c0-41.2,33.5-74.8,74.8-74.8
		c14.3,0,28.2,4.1,40.2,11.8c2.3,1.5,5.4,0.8,6.9-1.5s0.8-5.4-1.5-6.9c-13.6-8.7-29.4-13.4-45.6-13.4c-14,0-27.2,3.4-38.8,9.4
		c-26.1-11.9-54-17.9-83-17.9c-110.4,0-200.2,89.6-200.5,199.9c0,0.2-0.1,0.4-0.1,0.6s0,0.4,0.1,0.6
		c0.3,110.3,90.2,199.9,200.5,199.9s200.2-89.6,200.5-199.9c0-0.2,0.1-0.4,0.1-0.6c0-0.2,0-0.4-0.1-0.6c-0.1-20-3.1-39.8-8.9-58.7
		C457,183,462.5,166.5,462.5,148.7L462.5,148.7z M342.3,233.4h29.6c0.4,5.8,0.7,11.7,0.8,17.6h-29.1v-2.5
		C343.6,243.4,343.2,238.4,342.3,233.4L342.3,233.4z M308,233.4h24.1c1,4.9,1.5,10,1.5,15.1v69.8c0,2.8-2.2,5-5,5h-9.8
		c-2.8,0-5,2.2-5,5s2.2,5,5,5h9.8c8.3,0,15-6.7,15-15V261h29.1c-0.7,46.2-11.6,88.4-29.1,120.9c-25.6-7.8-53.8-12.2-82.6-12.6v-36
		h24.2c2.8,0,5-2.2,5-5s-2.2-5-5-5h-26.3c-41.2,0-74.8-33.5-74.8-74.8s33.5-74.8,74.8-74.8c11.9,0,23.6,2.9,34.1,8.2v36.5
		C293,226.7,299.7,233.4,308,233.4L308,233.4z M293,148.7v22.2c-10.1-4.4-21-6.9-32-7.1v-21c10.9-0.2,21.8-0.9,32.4-2.2
		C293.2,143.3,293,145.9,293,148.7L293,148.7z M251,132.8c-27-0.4-53.4-4.4-77.5-11.5c20-32.7,47.3-53.5,77.5-55.6V132.8z
		 M251,142.8v21.4c-43.1,4-76.9,40.3-76.9,84.4c0,0.8,0,1.7,0.1,2.5h-34.9c0.7-46.2,11.6-88.4,29.1-120.9
		C194,138,222.2,142.3,251,142.8z M175,261c5.7,38.3,37.1,68.3,76,71.9v36.4c-28.8,0.5-57,4.8-82.6,12.6
		c-17.5-32.4-28.4-74.6-29.1-120.9L175,261L175,261z M251,379.2v67.1c-30.2-2.1-57.4-22.9-77.5-55.6
		C197.6,383.6,224,379.7,251,379.2z M261,379.2c27,0.4,53.4,4.4,77.5,11.5c-20,32.7-47.3,53.5-77.5,55.6V379.2z M295,130.3
		c-11.1,1.4-22.5,2.3-34,2.5V65.6c19,1.3,37.6,10.3,54,26.1C305.3,102.5,298.3,115.7,295,130.3z M328.5,79.8c-2.2,1.6-4.3,3.2-6.3,5
		c-4.8-4.7-9.8-8.8-15-12.4C314.5,74.4,321.6,76.9,328.5,79.8z M165.6,115.1c-0.6,1-1.2,2-1.9,3.1c-9.3-3.2-18.2-6.8-26.6-11
		c19.6-15.7,42.5-27.6,67.3-34.6C190.1,82.6,177,96.9,165.6,115.1L165.6,115.1z M128.9,114.2c9.4,4.9,19.4,9.1,29.9,12.8
		c-18.5,34.8-28.8,78.1-29.5,124H65.5C66.9,196.7,91.1,148.1,128.9,114.2L128.9,114.2z M65.5,261h63.7c0.7,45.9,11.1,89.2,29.5,124
		c-10.5,3.7-20.6,7.9-29.9,12.8C91.1,363.9,66.9,315.3,65.5,261L65.5,261z M137.1,404.8c8.4-4.1,17.3-7.8,26.6-11
		c0.6,1,1.2,2.1,1.9,3.1c11.3,18.2,24.5,32.5,38.8,42.5C179.6,432.5,156.8,420.5,137.1,404.8L137.1,404.8z M346.4,396.9
		c0.6-1,1.2-2,1.9-3.1c9.3,3.2,18.2,6.8,26.6,11c-19.6,15.7-42.5,27.6-67.3,34.6C321.9,429.4,335,415.1,346.4,396.9L346.4,396.9z
		 M383.1,397.8c-9.4-4.9-19.4-9.1-29.9-12.8c18.5-34.8,28.8-78.1,29.5-124h63.8C445.1,315.3,420.9,363.9,383.1,397.8z M446.5,251
		h-63.8c-0.1-5.9-0.3-11.8-0.8-17.7c22.9-1.1,43.4-11.4,58-27.1C443.9,220.8,446.1,235.8,446.5,251L446.5,251z"/>
</g>
</svg>
