<?xml version="1.0" encoding="utf-8"?>
<!-- Generator: Adobe Illustrator 26.3.0, SVG Export Plug-In . SVG Version: 6.00 Build 0)  -->
<svg version="1.1" id="Layer_1" xmlns="http://www.w3.org/2000/svg" xmlns:xlink="http://www.w3.org/1999/xlink" x="0px" y="0px"
	 viewBox="0 0 150 150" style="enable-background:new 0 0 150 150;" xml:space="preserve">
<style type="text/css">
	.st0{clip-path:url(#SVGID_00000055679449627068524130000006386904510573122452_);}
	.st1{display:none;fill:#FFFFFF;}
</style>
<g id="Layer_1_00000163054670919155561820000007841852141092823987_">
	<g>
		<g>
			<defs>
				<circle id="SVGID_1_" cx="75" cy="75.2" r="75"/>
			</defs>
			<clipPath id="SVGID_00000152944315996620350250000008526523339836748430_">
				<use xlink:href="#SVGID_1_"  style="overflow:visible;"/>
			</clipPath>
			
				<g transform="matrix(1 0 0 1 -5.960464e-08 0)" style="clip-path:url(#SVGID_00000152944315996620350250000008526523339836748430_);">
				
					<image style="overflow:visible;enable-background:new    ;" width="1083" height="1083" id="Layer_0__x2B__rotten-wood__x2B__Levels_1_xA0_Image" xlink:href="5BA55EC6.png"  transform="matrix(0.1399 0 0 0.1399 -0.6243 -0.6235)">
				</image>
			</g>
		</g>
		
			<image style="overflow:visible;" width="4032" height="3024" xlink:href="pfp.jpg"  transform="matrix(-9.217804e-18 5.017938e-02 -5.017938e-02 -9.217804e-18 151.7425 -32.0753)">
		</image>
	</g>
	<path class="st1" d="M90.6,105.8c12.5-27.5-0.7-50.5-28-71C64.4,62.4,58,86.2,46.9,108c15.9-4.4,33.9-3.6,55.3,5.4L90.6,105.8z
		 M83.3,101.4c-4.7-2.4-10-5.7-15.9-10.1c3.7-9.5,5.6-22,6.2-36.2C83.4,68.4,84.7,84.4,83.3,101.4z"/>
</g>
<g id="Layer_3">
</g>
</svg>
