<?xml version="1.0" encoding="utf-8"?>
<!-- Generator: Adobe Illustrator 26.3.0, SVG Export Plug-In . SVG Version: 6.00 Build 0)  -->
<svg version="1.1" id="Layer_1" xmlns="http://www.w3.org/2000/svg" xmlns:xlink="http://www.w3.org/1999/xlink" x="0px" y="0px"
	 viewBox="0 0 150 150" style="enable-background:new 0 0 150 150;" xml:space="preserve">
<style type="text/css">
	.st0{display:none;}
	.st1{display:inline;}
	.st2{fill-rule:evenodd;clip-rule:evenodd;fill:#454360;}
	.st3{fill-rule:evenodd;clip-rule:evenodd;fill:#6C6CE5;}
	.st4{fill-rule:evenodd;clip-rule:evenodd;fill:#FFFFFE;}
	.st5{fill-rule:evenodd;clip-rule:evenodd;fill:#E46B6A;}
	.st6{fill-rule:evenodd;clip-rule:evenodd;fill:#E05A5B;}
	.st7{fill-rule:evenodd;clip-rule:evenodd;fill:#302C3F;}
	.st8{fill-rule:evenodd;clip-rule:evenodd;fill:#4F4B67;}
	.st9{fill-rule:evenodd;clip-rule:evenodd;fill:#E5726D;}
	.st10{fill-rule:evenodd;clip-rule:evenodd;fill:#DF4F4B;}
	.st11{fill-rule:evenodd;clip-rule:evenodd;fill:#EE9F79;}
	.st12{enable-background:new    ;}
	.st13{fill-rule:evenodd;clip-rule:evenodd;fill:#150E18;}
	.st14{fill-rule:evenodd;clip-rule:evenodd;fill:#F0AC8A;}
	.st15{fill-rule:evenodd;clip-rule:evenodd;fill:#F0AA87;}
	.st16{clip-path:url(#SVGID_00000156565688230403349420000005756757025588551846_);}
	.st17{fill:#FFFFFF;}
</style>
<g id="Layer_2_00000155829342073640724190000006584707362266089359_" class="st0">
	<g id="Personal-1-mixed" class="st1">
		<g id="about" transform="translate(-360.000000, -1101.000000)">
			<g transform="translate(350.000000, 990.000000)">
				<g id="bio" transform="translate(10.000000, 109.000000)">
					<g id="avatar" transform="translate(0.000000, 2.000000)">
						<g id="Oval">
							<circle id="path-1_1_" class="st2" cx="75" cy="75" r="75"/>
						</g>
						<g>
							<g transform="translate(28.000000, 24.000000)">
								<path id="Fill-31" class="st3" d="M77.4,111.8C61,105,55.6,96.6,57,84.5H39c1.4,12.1-4,20.6-20.4,27.3
									C2.2,118.6,0,126,0,126h96C96,126,93.8,118.6,77.4,111.8"/>
								<path id="Fill-32" class="st4" d="M48.7,114.9c6.8,0,12.9-4.4,15.3-11c-0.5-0.5-1-1-1.4-1.5l0,0
									c-1.9,6.1-7.4,10.6-13.9,10.6s-12-4.4-13.9-10.6l0,0c-0.4,0.5-0.9,1-1.4,1.5C35.8,110.5,41.9,114.9,48.7,114.9"/>
								<path id="Fill-33" class="st5" d="M62.6,101.8c-4.4-4.8-5.8-10.5-5-17.3H39.8c0.8,6.8-0.6,12.5-5,17.3
									c1.9,6,7.4,10.4,13.9,10.4C55.2,112.2,60.7,107.8,62.6,101.8"/>
								<path id="Fill-34" class="st6" d="M62.6,101.9c-4.4-4.9-5.8-10.6-5-17.5H39.8c0.8,6.9-0.6,12.6-5,17.5l0.1,0.2
									c3.7,1.1,8.1,1.7,13.4,1.7C54,103.8,58.7,103.2,62.6,101.9"/>
								<path id="Fill-35" class="st7" d="M15,70.6c0,0-1.5-19.8,16.7-26.8s29-12.1,29.8-25.8c0,0,5.7,11.9,0,20c0,0,6.9,0.4,8-4.2
									c0,0,2.7,7.5,1.5,10.1c0,0,3.4-0.3,3.8-5.2l2.3,26l1.5,5.9l5.6-18.4c0,0,14.6-34.3-16.3-43.2c0,0-25.9-22.3-52.9,3.3
									c0,0-21.8,17.2-7.2,44.3L15,70.6"/>
								<path id="Fill-36" class="st8" d="M15.5,12.2c0,0-8.5,6.7-11.3,18.3C7,25.8,16.6,11.7,31.6,7.2c18.1-5.3,36.6,1.6,36.6,1.6
									S42.4-13.1,15.5,12.2"/>
								<path id="Fill-37" class="st8" d="M87.4,38.8L87.4,38.8c1.1-10.3-1.3-24-19.3-29.1C68.2,9.7,88,21.9,87.4,38.8"/>
								<path id="Fill-38" class="st9" d="M21.8,60.3c3.4,6.4,2,13.6-3.2,16.3c-5.1,2.6-12-0.4-15.4-6.7c-3.4-6.4-2-13.6,3.2-16.3
									C11.5,50.9,18.4,53.9,21.8,60.3"/>
								<path id="Fill-39" class="st10" d="M19.5,72c0-0.3-0.1-0.5-0.1-0.7c0,0.2,0.1,0.3,0.1,0.4c0-1.3-0.2-2.3-0.6-3.2
									C16.1,57.8,5.6,56.8,5.6,56.8c5.3,3.1,8.7,6.4,10.8,9.2c-3.8-1.5-9.7,1.6-9.7,1.6c7-1.8,10.1-0.3,11.6,1.4
									C19.2,70.8,19.5,72,19.5,72"/>
								<path id="Fill-40" class="st7" d="M17.1,74.8c0,0-7.9-22.1,1.1-34.6l5.4,16.4L17.1,74.8"/>
								<path id="Fill-41" class="st9" d="M72.8,60.3c-3.4,6.4-2,13.6,3.2,16.3c5.1,2.6,12-0.4,15.4-6.7c3.4-6.4,2-13.6-3.2-16.3
									C83.1,50.9,76.2,53.9,72.8,60.3"/>
								<path id="Fill-42" class="st10" d="M75.1,72c0-0.3,0.1-0.5,0.1-0.7c0,0.2-0.1,0.3-0.1,0.4c0-1.3,0.2-2.3,0.6-3.2
									C78.5,57.8,89,56.8,89,56.8c-5.3,3.1-8.7,6.4-10.8,9.2c3.8-1.5,9.7,1.6,9.7,1.6c-7-1.8-10.1-0.3-11.6,1.4
									C75.4,70.8,75.1,72,75.1,72"/>
								<path id="Fill-43" class="st7" d="M76.2,77.5c0,0,9.8-6,4-33.2l-12.1,3.8L76.2,77.5"/>
								<path id="Fill-44" class="st11" d="M77,65.3L74.7,39c-0.4,5-3.8,5.2-3.8,5.2C72,41.6,69.4,34,69.4,34c-1.1,4.6-8,4.3-8,4.3
									c5.7-8.2,0-20.3,0-20.3C60.6,31.9,50,37.2,31.8,44.2c-13.6,5.2-16.2,17.7-16.6,23.7c0.5,16.5,5.4,31.8,31.4,31.8
									c22.7,0,29.2-10.7,30.9-23.8C78.1,72.3,77.9,68.7,77,65.3"/>
								<g transform="matrix(1 0 0 1 0 0)" class="st12">
									
										<image style="overflow:visible;enable-background:new    ;" width="38" height="12" id="Image-46" xlink:href="5BA55EC2.png"  transform="matrix(0.4394 0 0 0.4394 37.5652 79.0562)">
									</image>
								</g>
								<path id="Fill-47" class="st13" d="M64,58.2c0,2.3-0.9,4.2-2.1,4.2c-1.2,0-2.1-1.9-2.1-4.2s0.9-4.2,2.1-4.2S64,55.9,64,58.2
									"/>
								<path id="Fill-48" class="st13" d="M30.6,58.2c0,2.3,0.9,4.2,2.1,4.2s2.1-1.9,2.1-4.2S33.9,54,32.7,54S30.6,55.9,30.6,58.2"
									/>
								<path id="Fill-49" class="st7" d="M25,52.6c0,0,11.1-3.5,16.7-3.2c0,0-0.9-6-7.6-5C26.3,45.7,25,52.6,25,52.6"/>
								<path id="Fill-50" class="st7" d="M69.6,49.8c0,0-11.3-2.2-16.7-1.2c0,0,0.2-6,6.8-5.7C67.5,43.3,69.6,49.8,69.6,49.8"/>
								<path id="Fill-51" class="st10" d="M31.4,72c-0.1,0-0.2,0-0.4-0.1c-0.4-0.2-0.6-0.7-0.4-1.1l2.6-5.3
									c0.2-0.4,0.7-0.6,1.1-0.4c0.4,0.2,0.6,0.7,0.4,1.1l-2.6,5.3C32,71.8,31.7,72,31.4,72"/>
								<path id="Fill-52" class="st10" d="M25.9,72c-0.1,0-0.2,0-0.4-0.1c-0.4-0.2-0.6-0.7-0.4-1.1l2.6-5.3
									c0.2-0.4,0.7-0.6,1.1-0.4s0.6,0.7,0.4,1.1l-2.6,5.3C26.4,71.8,26.2,72,25.9,72"/>
								<path id="Fill-53" class="st10" d="M64.6,72c-0.3,0-0.6-0.2-0.7-0.5l-2.6-5.3c-0.2-0.4,0-0.9,0.4-1.1s0.9,0,1.1,0.4l2.6,5.3
									c0.2,0.4,0,0.9-0.4,1.1C64.8,72,64.7,72,64.6,72"/>
								<path id="Fill-54" class="st10" d="M68.8,72c-0.3,0-0.6-0.2-0.7-0.5l-2.6-5.3c-0.2-0.4,0-0.9,0.4-1.1s0.9,0,1.1,0.4l2.6,5.3
									c0.2,0.4,0,0.9-0.4,1.1C69,72,68.9,72,68.8,72"/>
								<path id="Fill-55" class="st10" d="M51.5,66.3c0,2.4-1.6,4.3-3.5,4.3s-3.5-1.9-3.5-4.3s1.6-5.4,3.5-5.4S51.5,63.9,51.5,66.3
									"/>
								<path id="Fill-56" class="st10" d="M49.2,77.5c-8.5,0-13.8-3.8-14-4c-0.4-0.3-0.5-0.8-0.2-1.2c0.3-0.4,0.9-0.4,1.3-0.1
									c0.1,0.1,7.9,5.7,19.6,2.8c0.5-0.1,1,0.2,1.1,0.6c0.1,0.5-0.2,0.9-0.7,1.1C53.8,77.3,51.4,77.5,49.2,77.5"/>
								<polyline id="Fill-57" class="st14" points="61.9,18.7 61.9,18.6 61.9,18.8 61.9,18.7 								"/>
								<path id="Fill-58" class="st15" d="M47.3,93.3c-16.3,0-24.8-5.3-29.2-13C21,91.4,28.5,99.7,47.2,99.7
									c19.1,0,26.5-8.1,29.3-18.8C72.2,88.3,63.7,93.3,47.3,93.3"/>
							</g>
						</g>
					</g>
				</g>
			</g>
		</g>
	</g>
</g>
<g id="Layer_1_00000163054670919155561820000007841852141092823987_">
	<g>
		<g>
			<g>
				<defs>
					<circle id="SVGID_1_" cx="75" cy="75.2" r="75"/>
				</defs>
				<clipPath id="SVGID_00000054963425167080067030000002770415930237659792_">
					<use xlink:href="#SVGID_1_"  style="overflow:visible;"/>
				</clipPath>
				
					<g transform="matrix(1 0 0 1 -5.960464e-08 0)" style="clip-path:url(#SVGID_00000054963425167080067030000002770415930237659792_);">
					
						<image style="overflow:visible;enable-background:new    ;" width="1083" height="1083" id="Layer_0__x2B__rotten-wood__x2B__Levels_1_xA0_Image" xlink:href="5BA55EC6.png"  transform="matrix(0.1399 0 0 0.1399 -0.6243 -0.6235)">
					</image>
				</g>
			</g>
		</g>
	</g>
	
		<image style="display:none;overflow:visible;enable-background:new    ;" width="3024" height="3024" xlink:href="pfp.png"  transform="matrix(4.958476e-02 0 0 4.958476e-02 5.566884e-02 -0.2939)">
	</image>
	<path class="st17" d="M90.6,105.8c12.5-27.5-0.7-50.5-28-71C64.4,62.4,58,86.2,46.9,108c15.9-4.4,33.9-3.6,55.3,5.4L90.6,105.8z
		 M83.3,101.4c-4.7-2.4-10-5.7-15.9-10.1c3.7-9.5,5.6-22,6.2-36.2C83.4,68.4,84.7,84.4,83.3,101.4z"/>
</g>
<g id="Layer_3" class="st0">
</g>
</svg>
