<?xml version="1.0" encoding="utf-8"?>
<!-- Generator: Adobe Illustrator 26.3.0, SVG Export Plug-In . SVG Version: 6.00 Build 0)  -->
<svg version="1.1" id="Layer_1" xmlns="http://www.w3.org/2000/svg" xmlns:xlink="http://www.w3.org/1999/xlink" x="0px" y="0px"
	 viewBox="0 0 1196.6 405.2" style="enable-background:new 0 0 1196.6 405.2;" xml:space="preserve">
<style type="text/css">
	.st0{display:none;}
	.st1{display:inline;stroke:#FFFFFF;stroke-miterlimit:10;}
	.st2{display:inline;fill:#FFFFFF;}
	.st3{display:inline;fill:#00E0CA;}
	.st4{fill:#FFFFFF;}
	.st5{font-family:'Ruthligos';}
	.st6{font-size:325.4778px;}
</style>
<g id="Layer_2_00000139259012398786995160000014144006802198764928_" class="st0">
	<rect y="8" class="st1" width="1176.9" height="385.9"/>
</g>
<g id="Layer_1_00000141414230009846811570000015935089543210363022_">
	<g class="st0">
		<path class="st2" d="M378.7,406.3l49.6-124.1c0.6-1.6,1.7-2.7,3.2-3.4c1.6-0.7,3.1-0.7,4.6,0c1.6,0.5,2.8,1.6,3.5,3.5l49.5,124.1
			c0.7,1.5,0.7,3.1,0,4.6s-1.7,2.7-3.3,3.4c-1.6,0.5-3.2,0.5-4.8-0.2c-1.6-0.7-2.6-1.7-3.2-3.3l-43.9-110.5l-43.8,110.4
			c-0.7,1.5-1.8,2.6-3.4,3.3c-1.5,0.6-3.1,0.7-4.6,0.2c-1.5-0.7-2.6-1.8-3.2-3.4C378.2,409.4,378.1,407.8,378.7,406.3z M405,410.9
			c-0.7-1.5-0.7-3.1,0-4.6l4.4-11c0.5-1.1,1.3-2,2.4-2.7c1-0.7,2.1-1,3.2-1h37.7c1.4,0,2.6,0.4,3.7,1.2s1.8,1.8,2.2,3.1l4.4,10.5
			c0.5,1.6,0.5,3.2-0.1,4.7s-1.7,2.6-3.2,3.3c-1.6,0.5-3.2,0.5-4.8-0.1s-2.7-1.7-3.2-3.3l-2.9-7.1h-29.5l-3.1,7.1
			c-0.5,1.5-1.6,2.6-3.1,3.3c-1.5,0.6-3.1,0.7-4.8,0.2C406.8,413.6,405.7,412.5,405,410.9z M420.8,377.6c-1.2-1.2-1.7-2.7-1.7-4.4
			c0-1.7,0.6-3.1,1.7-4.3c1.2-1.1,2.6-1.7,4.2-1.7h8.7l-5.4-13.5c-0.5-1.6-0.5-3.2,0.1-4.7s1.7-2.6,3.2-3.1c1.7-0.6,3.2-0.6,4.8,0
			c1.5,0.6,2.6,1.6,3.2,3.1l8.9,21.9c0.4,0.7,0.5,1.5,0.5,2.3c0,1.7-0.6,3.2-1.9,4.4c-1.2,1.2-2.7,1.8-4.4,1.8H425
			C423.4,379.4,422,378.8,420.8,377.6z"/>
		<path class="st2" d="M507.9,409.8V288c0-1.7,0.6-3.1,1.8-4.3c1.2-1.2,2.6-1.8,4.4-1.8c1.7,0,3.1,0.6,4.3,1.8
			c1.2,1.2,1.8,2.6,1.8,4.3v115.5H585c1.7,0,3.2,0.6,4.3,1.8c1.2,1.2,1.7,2.7,1.7,4.4c0,1.7-0.6,3.1-1.7,4.2
			c-1.2,1.2-2.6,1.7-4.3,1.7h-70.8c-1.7,0-3.2-0.6-4.4-1.7C508.5,412.8,507.9,411.4,507.9,409.8z M532.2,385.3V288
			c0-1.7,0.6-3.1,1.8-4.3c1.2-1.2,2.6-1.8,4.3-1.8s3.2,0.6,4.4,1.8c1.2,1.2,1.8,2.6,1.8,4.3v91.2h40.4c1.7,0,3.2,0.6,4.3,1.8
			c1.2,1.2,1.7,2.6,1.7,4.4c0,1.7-0.6,3.1-1.7,4.3c-1.2,1.2-2.6,1.8-4.3,1.8h-46.6c-1.7,0-3.1-0.6-4.3-1.8
			C532.8,388.4,532.2,387,532.2,385.3z"/>
		<path class="st2" d="M613.2,409.8V288c0-1.7,0.6-3.1,1.8-4.3c1.2-1.2,2.6-1.8,4.4-1.8c1.7,0,3.1,0.6,4.3,1.8
			c1.2,1.2,1.8,2.6,1.8,4.3v121.7c0,1.7-0.6,3.1-1.8,4.2c-1.2,1.2-2.6,1.7-4.3,1.7s-3.2-0.6-4.4-1.7
			C613.8,412.8,613.2,411.4,613.2,409.8z M637.5,409.8V288c0-1.7,0.6-3.1,1.8-4.3c1.2-1.2,2.7-1.8,4.4-1.8s3.1,0.6,4.2,1.8
			c1.2,1.2,1.7,2.6,1.7,4.3v121.7c0,1.7-0.6,3.1-1.7,4.2c-1.2,1.2-2.6,1.7-4.2,1.7c-1.7,0-3.2-0.6-4.4-1.7
			C638.1,412.8,637.5,411.4,637.5,409.8z"/>
		<path class="st2" d="M673.2,348.6c0-0.2,0-0.5,0-0.7c0-6.8,0.9-13.3,2.6-19.7c1.8-6.6,4.5-12.9,8.3-18.8
			c3.7-5.9,8.3-11.1,13.6-15.5s11.8-8,19.3-10.5c7.6-2.6,15.8-3.9,24.7-3.9c9.4,0,18.3,1.8,26.9,5.3c1.7,0.7,2.8,1.9,3.3,3.5
			s0.5,3.1-0.1,4.5s-1.6,2.5-3.1,3.3s-3.1,0.8-4.9,0.1c-7.1-3-14.6-4.5-22.7-4.5c-10.7,0-20.4,2.5-29,7.5s-15.3,11.8-20,20.4
			s-7.1,18.2-7.1,28.7c0.1,5.8,0.8,11.4,2.4,16.8c1.5,5.4,3.8,10.5,6.9,15.3c3.1,4.8,6.9,9,11.3,12.5c4.4,3.6,9.7,6.4,15.9,8.5
			s12.9,3.1,20.1,3.1s14.6-1.5,22.2-4.4c1.4-0.5,2.8-0.6,4-0.3c1.3,0.3,2.2,1,2.9,2.1s1.1,2.2,1.4,3.4c0.2,1.2,0,2.4-0.6,3.7
			c-0.6,1.2-1.7,2.1-3,2.7c-8.8,3.4-17.7,5.1-26.9,5.1c-8.8,0-16.9-1.3-24.4-3.8s-13.9-6-19.2-10.3c-5.3-4.4-9.8-9.4-13.6-15.2
			c-3.8-5.8-6.5-12-8.4-18.5C674.1,362.2,673.2,355.5,673.2,348.6z M699.2,348.3c0-6.1,1-11.7,2.9-16.9c1.9-5.2,4.5-9.6,7.8-13.2
			s7.2-6.6,11.6-8.9c4.4-2.3,9.1-3.7,14-4.4c2-0.3,4.1-0.4,6.1-0.4c3-0.1,6,0.2,9.1,0.8c5.3,1,10.3,2.9,15.2,5.8
			c1.4,0.7,2.3,1.6,2.8,2.8c0.5,1.2,0.6,2.3,0.3,3.4s-0.9,2.1-1.7,3s-1.8,1.5-3.1,1.6c-1.3,0.2-2.6-0.1-4-0.8
			c-5.2-2.9-10.7-4.5-16.5-4.6c-0.4,0-0.8,0-1.2,0c-5.4,0-10.3,1-14.7,3c-4.7,2.3-8.7,5.9-11.8,10.9s-4.7,11-4.7,17.8
			c0,9.5,2.9,17.1,8.6,22.7c5.7,5.6,12.8,8.5,21.1,8.8c0.4,0,0.7,0,1.1,0c6.5,0,12.5-1.6,18.2-4.7c1.4-0.6,2.7-0.9,4-0.7
			c1.3,0.2,2.3,0.8,3.1,1.7c0.8,0.9,1.4,2,1.7,3.1s0.2,2.3-0.3,3.5s-1.4,2.2-2.8,2.9c-7.3,4.2-15.2,6.3-23.7,6.3c-0.4,0-0.7,0-1.1,0
			c-5.6-0.1-10.9-1.2-15.9-3.2s-9.5-4.9-13.3-8.6c-3.9-3.7-6.9-8.3-9.2-13.8C700.3,360.8,699.2,354.8,699.2,348.3z"/>
		<path class="st2" d="M781.8,406.3l49.7-124.1c0.6-1.6,1.7-2.7,3.2-3.4c1.6-0.7,3.1-0.7,4.6,0c1.6,0.5,2.8,1.6,3.5,3.5l49.5,124
			c0.7,1.5,0.7,3.1,0,4.6c-0.6,1.5-1.7,2.7-3.3,3.4c-1.6,0.5-3.2,0.5-4.8-0.2s-2.7-1.7-3.2-3.3l-43.9-110.4l-43.8,110.4
			c-0.7,1.5-1.8,2.6-3.4,3.3c-1.5,0.6-3.1,0.7-4.6,0.2c-1.5-0.7-2.6-1.8-3.2-3.4C781.4,409.4,781.3,407.8,781.8,406.3z M808.2,410.9
			c-0.6-1.5-0.6-3.1,0-4.6l4.4-11c0.5-1.1,1.3-2,2.4-2.7c1-0.7,2.1-1,3.2-1h37.7c1.4,0,2.6,0.4,3.7,1.2c1.1,0.8,1.8,1.8,2.2,3.1
			l4.4,10.5c0.5,1.6,0.5,3.2-0.1,4.7s-1.7,2.6-3.2,3.3c-1.6,0.5-3.2,0.5-4.8-0.1s-2.6-1.7-3.2-3.3l-2.9-7.1h-29.4l-3.1,7.1
			c-0.5,1.5-1.6,2.6-3.1,3.3c-1.5,0.6-3.1,0.7-4.7,0.2C810,413.6,808.9,412.5,808.2,410.9z M824,377.6c-1.2-1.2-1.7-2.7-1.7-4.4
			c0-1.7,0.6-3.1,1.7-4.3c1.2-1.1,2.6-1.7,4.2-1.7h8.7l-5.4-13.5c-0.5-1.6-0.5-3.2,0.1-4.7s1.7-2.6,3.2-3.1c1.7-0.6,3.2-0.6,4.8,0
			s2.6,1.6,3.2,3.1l8.9,21.9c0.4,0.7,0.5,1.5,0.5,2.3c0,1.7-0.6,3.2-1.9,4.4c-1.2,1.2-2.7,1.8-4.4,1.8h-17.7
			C826.6,379.4,825.2,378.8,824,377.6z"/>
		<path class="st2" d="M911.1,409.8V288c0-1.7,0.6-3.1,1.7-4.2s2.6-1.7,4.2-1.7c1.7,0,3.2,0.6,4.3,1.7c1.2,1.1,1.7,2.5,1.7,4.2
			v121.7c0,1.7-0.6,3.1-1.7,4.4c-1.2,1.2-2.6,1.9-4.3,1.9c-1.6,0-3-0.6-4.2-1.9C911.6,412.9,911.1,411.4,911.1,409.8z M933.1,287.1
			c0.3-1.6,1.1-2.8,2.5-3.7c1.4-1.1,3-1.4,4.6-1.2c1.7,0.3,2.9,1.2,3.8,2.6l41.9,59.9V288c0-1.6,0.6-3,1.8-4.1
			c1.2-1.2,2.6-1.7,4.3-1.7s3.1,0.6,4.3,1.7s1.8,2.5,1.8,4.2v75.7c0,2.3-0.9,3.9-2.8,5.1c-1.4,1-2.8,1.4-4.4,1.1
			c-1.6-0.3-2.9-1.1-3.9-2.5l-52.8-75.7C933.2,290.2,932.8,288.7,933.1,287.1z M935.4,409.8v-75.7c0-2.2,0.9-3.9,2.6-4.9
			c1.3-1.1,2.8-1.5,4.5-1.2s3,1.2,3.9,2.7l53,75.7c0.9,1.4,1.2,2.9,0.9,4.4c-0.3,1.6-1,3-2.4,4.1c-1.5,0.9-3,1.2-4.7,0.9
			c-1.6-0.3-2.9-1.1-4-2.5l-41.9-59.9v56.4c0,1.7-0.6,3.1-1.8,4.2c-1.2,1.2-2.6,1.7-4.4,1.7c-1.7,0-3.1-0.6-4.2-1.7
			C936,412.8,935.4,411.4,935.4,409.8z M1010.2,409.8V288c0-1.7,0.6-3.1,1.8-4.2s2.6-1.7,4.3-1.7s3.2,0.6,4.4,1.7s1.8,2.5,1.8,4.2
			v121.7c0,1.7-0.6,3.1-1.8,4.4c-1.2,1.2-2.6,1.9-4.4,1.9c-1.7,0-3.1-0.6-4.3-1.9C1010.8,412.9,1010.2,411.4,1010.2,409.8z"/>
		<path class="st3" d="M1039.9,397.4c0-5.6,1.8-10.3,5.5-14s8.3-5.6,13.8-5.6s10.1,1.9,13.7,5.6s5.4,8.4,5.4,14
			c0,5.4-1.8,10-5.4,13.7s-8.2,5.6-13.7,5.6s-10.1-1.9-13.8-5.6S1039.9,402.8,1039.9,397.4z M1050.5,397.4c0,2.4,0.8,4.4,2.4,5.9
			s3.7,2.2,6.3,2.2s4.7-0.7,6.2-2.2s2.3-3.5,2.3-5.9c0-2.5-0.8-4.5-2.3-6.1s-3.6-2.3-6.2-2.3s-4.6,0.8-6.3,2.3
			C1051.3,392.9,1050.5,394.9,1050.5,397.4z"/>
	</g>
	
		<text transform="matrix(1 0 0 1 1666.3781 445.7072)" style="fill:#00E0CA; font-family:'CigraFREEDEMO-Regular'; font-size:728.4007px;">.</text>
	<text transform="matrix(1 0 0 1 24.7191 254.8172)" class="st4 st5 st6">alicansfw</text>
</g>
</svg>
