<?xml version="1.0" encoding="utf-8"?>
<!-- Generator: Adobe Illustrator 24.2.1, SVG Export Plug-In . SVG Version: 6.00 Build 0)  -->
<svg version="1.1" id="Layer_1" xmlns="http://www.w3.org/2000/svg" xmlns:xlink="http://www.w3.org/1999/xlink" x="0px" y="0px"
	 viewBox="0 0 700 140" style="enable-background:new 0 0 700 140;" xml:space="preserve">
<style type="text/css">
	.st0{fill:#FFFFFF;}
	.st1{fill:#00E0CA;}
</style>
<g>
	<path class="st0" d="M0.4,129.2L50,5.1c0.6-1.6,1.7-2.7,3.2-3.4c1.6-0.7,3.1-0.7,4.6,0c1.6,0.5,2.8,1.6,3.5,3.5l49.5,124.1
		c0.7,1.5,0.7,3.1,0,4.6c-0.7,1.5-1.7,2.7-3.3,3.4c-1.6,0.5-3.2,0.5-4.8-0.2c-1.6-0.7-2.6-1.7-3.2-3.3L55.6,23.3L11.8,133.7
		c-0.7,1.5-1.8,2.6-3.4,3.3c-1.5,0.6-3.1,0.7-4.6,0.2c-1.5-0.7-2.6-1.8-3.2-3.4C-0.1,132.3-0.2,130.7,0.4,129.2z M26.7,133.8
		c-0.7-1.5-0.7-3.1,0-4.6l4.4-11c0.5-1.1,1.3-2,2.4-2.7c1-0.7,2.1-1,3.2-1h37.7c1.4,0,2.6,0.4,3.7,1.2c1.1,0.8,1.8,1.8,2.2,3.1
		l4.4,10.5c0.5,1.6,0.5,3.2-0.1,4.7c-0.6,1.5-1.7,2.6-3.2,3.3c-1.6,0.5-3.2,0.5-4.8-0.1c-1.6-0.6-2.7-1.7-3.2-3.3l-2.9-7.1H41
		l-3.1,7.1c-0.5,1.5-1.6,2.6-3.1,3.3c-1.5,0.6-3.1,0.7-4.8,0.2C28.5,136.5,27.4,135.4,26.7,133.8z M42.5,100.5
		c-1.2-1.2-1.7-2.7-1.7-4.4c0-1.7,0.6-3.1,1.7-4.3c1.2-1.1,2.6-1.7,4.2-1.7h8.7L50,76.6c-0.5-1.6-0.5-3.2,0.1-4.7
		c0.6-1.5,1.7-2.6,3.2-3.1c1.7-0.6,3.2-0.6,4.8,0c1.5,0.6,2.6,1.6,3.2,3.1l8.9,21.9c0.4,0.7,0.5,1.5,0.5,2.3c0,1.7-0.6,3.2-1.9,4.4
		c-1.2,1.2-2.7,1.8-4.4,1.8H46.7C45.1,102.3,43.7,101.7,42.5,100.5z"/>
	<path class="st0" d="M129.6,132.7V10.9c0-1.7,0.6-3.1,1.8-4.3c1.2-1.2,2.6-1.8,4.4-1.8c1.7,0,3.1,0.6,4.3,1.8
		c1.2,1.2,1.8,2.6,1.8,4.3v115.5h64.8c1.7,0,3.2,0.6,4.3,1.8c1.2,1.2,1.7,2.7,1.7,4.4c0,1.7-0.6,3.1-1.7,4.2
		c-1.2,1.2-2.6,1.7-4.3,1.7h-70.8c-1.7,0-3.2-0.6-4.4-1.7C130.2,135.7,129.6,134.3,129.6,132.7z M153.9,108.2V10.9
		c0-1.7,0.6-3.1,1.8-4.3c1.2-1.2,2.6-1.8,4.3-1.8c1.7,0,3.2,0.6,4.4,1.8c1.2,1.2,1.8,2.6,1.8,4.3v91.2h40.4c1.7,0,3.2,0.6,4.3,1.8
		c1.2,1.2,1.7,2.6,1.7,4.4c0,1.7-0.6,3.1-1.7,4.3c-1.2,1.2-2.6,1.8-4.3,1.8H160c-1.7,0-3.1-0.6-4.3-1.8
		C154.5,111.3,153.9,109.9,153.9,108.2z"/>
	<path class="st0" d="M234.9,132.7V10.9c0-1.7,0.6-3.1,1.8-4.3c1.2-1.2,2.6-1.8,4.4-1.8c1.7,0,3.1,0.6,4.3,1.8
		c1.2,1.2,1.8,2.6,1.8,4.3v121.7c0,1.7-0.6,3.1-1.8,4.2c-1.2,1.2-2.6,1.7-4.3,1.7c-1.7,0-3.2-0.6-4.4-1.7
		C235.5,135.7,234.9,134.3,234.9,132.7z M259.2,132.7V10.9c0-1.7,0.6-3.1,1.8-4.3c1.2-1.2,2.7-1.8,4.4-1.8c1.7,0,3.1,0.6,4.2,1.8
		c1.2,1.2,1.7,2.6,1.7,4.3v121.7c0,1.7-0.6,3.1-1.7,4.2c-1.2,1.2-2.6,1.7-4.2,1.7c-1.7,0-3.2-0.6-4.4-1.7
		C259.8,135.7,259.2,134.3,259.2,132.7z"/>
	<path class="st0" d="M294.9,71.5c0-0.2,0-0.5,0-0.7c0-6.8,0.9-13.3,2.6-19.7c1.8-6.6,4.5-12.9,8.3-18.8c3.7-5.9,8.3-11.1,13.6-15.5
		c5.3-4.4,11.8-8,19.3-10.5c7.6-2.6,15.8-3.9,24.7-3.9c9.4,0,18.3,1.8,26.9,5.3c1.7,0.7,2.8,1.9,3.3,3.5c0.5,1.6,0.5,3.1-0.1,4.5
		c-0.6,1.4-1.6,2.5-3.1,3.3c-1.5,0.8-3.1,0.8-4.9,0.1c-7.1-3-14.6-4.5-22.7-4.5c-10.7,0-20.4,2.5-29,7.5c-8.6,5-15.3,11.8-20,20.4
		c-4.7,8.6-7.1,18.2-7.1,28.7c0.1,5.8,0.8,11.4,2.4,16.8c1.5,5.4,3.8,10.5,6.9,15.3c3.1,4.8,6.9,9,11.3,12.5
		c4.4,3.6,9.7,6.4,15.9,8.5c6.2,2.1,12.9,3.1,20.1,3.1c7.2,0,14.6-1.5,22.2-4.4c1.4-0.5,2.8-0.6,4-0.3c1.3,0.3,2.2,1,2.9,2.1
		c0.7,1.1,1.1,2.2,1.4,3.4c0.2,1.2,0,2.4-0.6,3.7c-0.6,1.2-1.7,2.1-3,2.7c-8.8,3.4-17.7,5.1-26.9,5.1c-8.8,0-16.9-1.3-24.4-3.8
		c-7.5-2.5-13.9-6-19.2-10.3c-5.3-4.4-9.8-9.4-13.6-15.2c-3.8-5.8-6.5-12-8.4-18.5C295.8,85.1,294.9,78.4,294.9,71.5z M320.9,71.2
		c0-6.1,1-11.7,2.9-16.9c1.9-5.2,4.5-9.6,7.8-13.2c3.3-3.6,7.2-6.6,11.6-8.9c4.4-2.3,9.1-3.7,14-4.4c2-0.3,4.1-0.4,6.1-0.4
		c3-0.1,6,0.2,9.1,0.8c5.3,1,10.3,2.9,15.2,5.8c1.4,0.7,2.3,1.6,2.8,2.8c0.5,1.2,0.6,2.3,0.3,3.4c-0.3,1.1-0.9,2.1-1.7,3
		c-0.8,0.9-1.8,1.5-3.1,1.6c-1.3,0.2-2.6-0.1-4-0.8c-5.2-2.9-10.7-4.5-16.5-4.6c-0.4,0-0.8,0-1.2,0c-5.4,0-10.3,1-14.7,3
		c-4.7,2.3-8.7,5.9-11.8,10.9c-3.1,5-4.7,11-4.7,17.8c0,9.5,2.9,17.1,8.6,22.7c5.7,5.6,12.8,8.5,21.1,8.8c0.4,0,0.7,0,1.1,0
		c6.5,0,12.5-1.6,18.2-4.7c1.4-0.6,2.7-0.9,4-0.7c1.3,0.2,2.3,0.8,3.1,1.7c0.8,0.9,1.4,2,1.7,3.1c0.3,1.1,0.2,2.3-0.3,3.5
		c-0.5,1.2-1.4,2.2-2.8,2.9c-7.3,4.2-15.2,6.3-23.7,6.3c-0.4,0-0.7,0-1.1,0c-5.6-0.1-10.9-1.2-15.9-3.2c-5-2-9.5-4.9-13.3-8.6
		c-3.9-3.7-6.9-8.3-9.2-13.8C322,83.7,320.9,77.7,320.9,71.2z"/>
	<path class="st0" d="M403.5,129.2L453.2,5.1c0.6-1.6,1.7-2.7,3.2-3.4c1.6-0.7,3.1-0.7,4.6,0c1.6,0.5,2.8,1.6,3.5,3.5L514,129.2
		c0.7,1.5,0.7,3.1,0,4.6c-0.6,1.5-1.7,2.7-3.3,3.4c-1.6,0.5-3.2,0.5-4.8-0.2c-1.6-0.7-2.7-1.7-3.2-3.3L458.8,23.3L415,133.7
		c-0.7,1.5-1.8,2.6-3.4,3.3c-1.5,0.6-3.1,0.7-4.6,0.2c-1.5-0.7-2.6-1.8-3.2-3.4C403.1,132.3,403,130.7,403.5,129.2z M429.9,133.8
		c-0.6-1.5-0.6-3.1,0-4.6l4.4-11c0.5-1.1,1.3-2,2.4-2.7c1-0.7,2.1-1,3.2-1h37.7c1.4,0,2.6,0.4,3.7,1.2s1.8,1.8,2.2,3.1l4.4,10.5
		c0.5,1.6,0.5,3.2-0.1,4.7c-0.6,1.5-1.7,2.6-3.2,3.3c-1.6,0.5-3.2,0.5-4.8-0.1c-1.6-0.6-2.6-1.7-3.2-3.3l-2.9-7.1h-29.4l-3.1,7.1
		c-0.5,1.5-1.6,2.6-3.1,3.3c-1.5,0.6-3.1,0.7-4.7,0.2C431.7,136.5,430.6,135.4,429.9,133.8z M445.7,100.5c-1.2-1.2-1.7-2.7-1.7-4.4
		c0-1.7,0.6-3.1,1.7-4.3c1.2-1.1,2.6-1.7,4.2-1.7h8.7l-5.4-13.5c-0.5-1.6-0.5-3.2,0.1-4.7c0.6-1.5,1.7-2.6,3.2-3.1
		c1.7-0.6,3.2-0.6,4.8,0s2.6,1.6,3.2,3.1l8.9,21.9c0.4,0.7,0.5,1.5,0.5,2.3c0,1.7-0.6,3.2-1.9,4.4c-1.2,1.2-2.7,1.8-4.4,1.8h-17.7
		C448.3,102.3,446.9,101.7,445.7,100.5z"/>
	<path class="st0" d="M532.8,132.7V10.9c0-1.7,0.6-3.1,1.7-4.2s2.6-1.7,4.2-1.7c1.7,0,3.2,0.6,4.3,1.7c1.2,1.1,1.7,2.5,1.7,4.2
		v121.7c0,1.7-0.6,3.1-1.7,4.4c-1.2,1.2-2.6,1.9-4.3,1.9c-1.6,0-3-0.6-4.2-1.9C533.3,135.8,532.8,134.3,532.8,132.7z M554.8,10
		c0.3-1.6,1.1-2.8,2.5-3.7c1.4-1.1,3-1.4,4.6-1.2c1.7,0.3,2.9,1.2,3.8,2.6l41.9,59.9V10.9c0-1.6,0.6-3,1.8-4.1
		c1.2-1.2,2.6-1.7,4.3-1.7c1.7,0,3.1,0.6,4.3,1.7c1.2,1.1,1.8,2.5,1.8,4.2v75.7c0,2.3-0.9,3.9-2.8,5.1c-1.4,1-2.8,1.4-4.4,1.1
		c-1.6-0.3-2.9-1.1-3.9-2.5l-52.8-75.7C554.9,13.1,554.5,11.6,554.8,10z M557.1,132.7V57c0-2.2,0.9-3.9,2.6-4.9
		c1.3-1.1,2.8-1.5,4.5-1.2c1.7,0.3,3,1.2,3.9,2.7l53,75.7c0.9,1.4,1.2,2.9,0.9,4.4c-0.3,1.6-1,3-2.4,4.1c-1.5,0.9-3,1.2-4.7,0.9
		c-1.6-0.3-2.9-1.1-4-2.5l-41.9-59.9v56.4c0,1.7-0.6,3.1-1.8,4.2c-1.2,1.2-2.6,1.7-4.4,1.7c-1.7,0-3.1-0.6-4.2-1.7
		C557.7,135.7,557.1,134.3,557.1,132.7z M631.9,132.7V10.9c0-1.7,0.6-3.1,1.8-4.2c1.2-1.1,2.6-1.7,4.3-1.7c1.7,0,3.2,0.6,4.4,1.7
		c1.2,1.1,1.8,2.5,1.8,4.2v121.7c0,1.7-0.6,3.1-1.8,4.4c-1.2,1.2-2.6,1.9-4.4,1.9c-1.7,0-3.1-0.6-4.3-1.9
		C632.5,135.8,631.9,134.3,631.9,132.7z"/>
	<path class="st1" d="M661.6,120.3c0-5.6,1.8-10.3,5.5-14c3.7-3.7,8.3-5.6,13.8-5.6c5.5,0,10.1,1.9,13.7,5.6c3.6,3.7,5.4,8.4,5.4,14
		c0,5.4-1.8,10-5.4,13.7c-3.6,3.7-8.2,5.6-13.7,5.6c-5.5,0-10.1-1.9-13.8-5.6C663.4,130.3,661.6,125.7,661.6,120.3z M672.2,120.3
		c0,2.4,0.8,4.4,2.4,5.9c1.6,1.5,3.7,2.2,6.3,2.2c2.6,0,4.7-0.7,6.2-2.2c1.5-1.5,2.3-3.5,2.3-5.9c0-2.5-0.8-4.5-2.3-6.1
		c-1.5-1.6-3.6-2.3-6.2-2.3c-2.6,0-4.6,0.8-6.3,2.3C673,115.8,672.2,117.8,672.2,120.3z"/>
</g>
</svg>
