<?xml version="1.0" encoding="utf-8"?>
<!-- Generator: Adobe Illustrator 24.2.1, SVG Export Plug-In . SVG Version: 6.00 Build 0)  -->
<svg version="1.1" id="Layer_1" xmlns="http://www.w3.org/2000/svg" xmlns:xlink="http://www.w3.org/1999/xlink" x="0px" y="0px"
	 viewBox="0 0 91 79" style="enable-background:new 0 0 91 79;" xml:space="preserve">
<style type="text/css">
	.st0{fill:#DFE7F4;}
	.st1{fill:#C7CFE1;}
	.st2{fill:#1AB394;}
	.st3{fill:#0F9373;}
	.st4{fill:#404A80;}
	.st5{fill:#283366;}
	.st6{fill:#F0F7FF;}
</style>
<desc>Created with Sketch.</desc>
<g>
	<g>
		<path class="st0" d="M3.4,65.8v10.5h42.3H88V65.8H45.7H3.4z"/>
		<path class="st0" d="M45.7,2.6H3.4v10.5h42.3H88V2.6H45.7z"/>
	</g>
	<path class="st1" d="M45.7,2.6H88v10.5H45.7V2.6z"/>
	<path class="st1" d="M45.7,65.8H88v10.5H45.7V65.8z"/>
	<path class="st2" d="M45.7,13.2H6v52.7h39.7h39.7V13.2H45.7z"/>
	<path class="st3" d="M45.7,13.2h39.7v52.7H45.7V13.2z"/>
	<g>
		<g>
			<path class="st4" d="M0.8,63.2V79h44.9h44.9V63.2H45.7H0.8z M15,73.7H6v-5.3h9V73.7z M29,73.7h-8.8v-5.3H29V73.7z M43.1,73.7
				h-8.8v-5.3h8.8V73.7z M76.4,68.5h9v5.3h-9V68.5z M62.4,68.5h8.8v5.3h-8.8V68.5z M48.4,68.5h8.8v5.3h-8.8V68.5z"/>
			<path class="st4" d="M45.7,0H0.8v15.8h44.9h44.9V0H45.7z M15,10.5H6V5.3h9V10.5z M29,10.5h-8.8V5.3H29V10.5z M43.1,10.5h-8.8V5.3
				h8.8V10.5z M57.1,10.5h-8.8V5.3h8.8V10.5z M71.2,10.5h-8.8V5.3h8.8V10.5z M85.4,10.5h-9V5.3h9V10.5z"/>
		</g>
		<g>
			<path class="st5" d="M57.1,10.5h-8.8V5.3h8.8V10.5z M71.2,10.5h-8.8V5.3h8.8V10.5z M45.7,0v15.8h44.9V0H45.7z M85.4,10.5h-9V5.3
				h9V10.5z"/>
			<path class="st5" d="M90.7,63.2H45.7V79h44.9V63.2z M57.1,73.7h-8.8v-5.3h8.8V73.7z M71.2,73.7h-8.8v-5.3h8.8V73.7z M85.4,73.7
				h-9v-5.3h9V73.7z"/>
		</g>
	</g>
	<path class="st6" d="M45.7,29.3L37.8,24V55l7.9-5.3L61,39.5L45.7,29.3z"/>
	<path class="st0" d="M45.7,29.3v20.4L61,39.5L45.7,29.3z"/>
</g>
<rect x="-18.6" class="st2" width="13.3" height="12.1"/>
</svg>
