<?xml version="1.0" encoding="utf-8"?>
<!-- Generator: Adobe Illustrator 24.2.1, SVG Export Plug-In . SVG Version: 6.00 Build 0)  -->
<svg version="1.1" id="Layer_1" xmlns="http://www.w3.org/2000/svg" xmlns:xlink="http://www.w3.org/1999/xlink" x="0px" y="0px"
	 viewBox="0 0 439 439" style="enable-background:new 0 0 439 439;" xml:space="preserve">
<style type="text/css">
	.st0{fill:#1AB394;}
	.st1{fill:#0F9373;}
	.st2{fill:#D8D8D8;}
</style>
<path class="st0" d="M139.1,328.4c50.4,37,119.6,34.6,167.3-5.9c47.7-40.4,61.4-108.3,33.2-164s-91.1-84.9-151.9-70.4
	C126.9,102.7,84,157,83.9,219.5C83.8,262.5,104.3,303,139.1,328.4z M431,267.9l-22.6,58.6l-35-1c-11.1,16.7-25,31.3-41.2,43.2
	l2.6,35l-57.6,25.2L253,403.7c-19.7,3.6-39.8,4.1-59.7,1.5l-22.6,26.2L112,408.8l1-35c-16.7-11.1-31.3-25-43.2-41.2l-35,2.6
	L9.6,277.6l25.2-24.2c-3.6-19.7-4.1-39.8-1.5-59.7L7,171.1l22.6-58.7l35,1c11.1-16.7,25-31.3,41.2-43.2l-2.6-35l57.6-25.2L185,35.3
	c19.7-3.6,39.8-4.1,59.7-1.5l22.6-26.2L326,30.2l-1,35c16.7,11.1,31.3,25,43.2,41.2l35-2.6l25.2,57.6l-25.2,24.2
	c3.6,19.7,4.1,39.8,1.5,59.7L431,267.9z"/>
<path class="st1" d="M219,84.4c58.3,0,110.1,37.5,128.3,92.9c18.2,55.4-1.2,116.3-48.2,150.9l-0.2-0.3V274
	c0-21.3-17.2-38.5-38.5-38.5c-9.7,13.2-25.1,21-41.4,21s-31.7-7.8-41.4-21c-21.3,0-38.5,17.3-38.5,38.5v54.4
	C92,293.8,72.5,233,90.7,177.5C108.8,122,160.6,84.5,219,84.4z M261.8,175.4c0-23.6-19.2-42.8-42.8-42.8
	c-23.6,0-42.8,19.2-42.8,42.8c0,23.6,19.2,42.8,42.8,42.8C242.6,218.2,261.8,199.1,261.8,175.4z"/>
<g>
	<path class="st2" d="M298.9,327.9l0.2,0.3c-47.6,35-112.4,35.1-160,0.2V274c0-21.3,17.2-38.5,38.5-38.5c9.7,13.2,25.1,21,41.4,21
		s31.7-7.8,41.4-21c21.3,0,38.5,17.3,38.5,38.5V327.9z"/>
	<path class="st2" d="M261.8,175.4c0,23.6-19.2,42.8-42.8,42.8c-23.6,0-42.8-19.2-42.8-42.8c0-23.6,19.2-42.8,42.8-42.8
		C242.6,132.6,261.8,151.8,261.8,175.4z"/>
</g>
</svg>
