<?xml version="1.0" encoding="utf-8"?>
<!-- Generator: Adobe Illustrator 24.2.1, SVG Export Plug-In . SVG Version: 6.00 Build 0)  -->
<svg version="1.1" id="Layer_1" xmlns="http://www.w3.org/2000/svg" xmlns:xlink="http://www.w3.org/1999/xlink" x="0px" y="0px"
	 viewBox="0 0 80 80" style="enable-background:new 0 0 80 80;" xml:space="preserve">
<style type="text/css">
	.st0{fill:#9EC8FC;}
	.st1{fill:#DDEBFD;}
	.st2{fill:#BED9FD;}
	.st3{fill:#407194;}
	.st4{fill:#9CD169;}
	.st5{fill:#6CBFF8;}
	.st6{fill:#365F7E;}
	.st7{fill:#5FA7EE;}
	.st8{fill:#68B181;}
	.st9{fill:#5392F9;}
	.st10{fill:#E9A761;}
	.st11{fill:#4071F7;}
	.st12{fill:#EEC06B;}
</style>
<desc>Created with Sketch.</desc>
<g>
	<path class="st0" d="M49.5,78.1H58l-7.1-15.5H29.2l-7.1,15.5h8.5l3.8-7.9c0.3-0.6,0.8-0.9,1.5-0.9h8.4c0.6,0,1.2,0.4,1.5,0.9
		L49.5,78.1z"/>
	<path class="st1" d="M80,56.5l-39.9-3.1L0.1,56.5v5.6c0,1,0.8,1.7,1.7,1.7h76.4c1,0,1.7-0.8,1.7-1.7L80,56.5L80,56.5z"/>
	<path class="st2" d="M75.2,56.5v5.6c0,1-0.8,1.7-1.7,1.7h4.8c1,0,1.7-0.8,1.7-1.7v-5.6H75.2z"/>
	<path class="st3" d="M80,56.5H0.1V6.1c0-1,0.8-1.7,1.7-1.7h76.4c1,0,1.7,0.8,1.7,1.7L80,56.5L80,56.5z"/>
	<path class="st1" d="M71.8,23.6v13.7l-6.2,3.1l-6.2-3.1V23.6l6.2-1.6L71.8,23.6z"/>
	<path class="st4" d="M71.8,10.7v12.9H59.4V10.7c0-0.4,0.4-0.8,0.8-0.8H71C71.5,9.9,71.8,10.3,71.8,10.7z"/>
	<path class="st5" d="M59.4,37.2h12.4v12.9c0,0.4-0.4,0.8-0.8,0.8H60.2c-0.4,0-0.8-0.4-0.8-0.8V37.2z"/>
	<path class="st6" d="M78.3,4.3h-4.8c1,0,1.7,0.8,1.7,1.7v50.4H80V6.1C80,5.1,79.2,4.3,78.3,4.3z"/>
	<path class="st5" d="M37.9,35.2H10.6c-0.4,0-0.8-0.4-0.8-0.8L8.3,14.9v-4.2c0-0.4,0.4-0.8,0.8-0.8h30.3c0.4,0,0.8,0.4,0.8,0.8v18.6
		l-1.6,5.1C38.7,34.8,38.3,35.2,37.9,35.2L37.9,35.2z"/>
	<path class="st7" d="M39.4,9.9h-4c0.4,0,0.8,0.4,0.8,0.8V39c0,0.4-0.4,0.8-0.8,0.8h4c0.4,0,0.8-0.4,0.8-0.8V10.7
		C40.2,10.3,39.9,9.9,39.4,9.9z"/>
	<path class="st1" d="M40.2,29.3v4.5l-16,1.6l-16-1.6V14.9c3.1,0,5.7,2.2,6.4,5.1c0.1,0.4,0.5,0.7,0.9,0.5c0.9-0.2,1.8-0.4,2.8-0.4
		c4.7,0,8.7,3,10.2,7.2c0.2,0.7,1,1,1.6,0.6c1.3-0.7,2.7-1.1,4.3-1.1C36.6,27,38.7,27.9,40.2,29.3z"/>
	<path class="st2" d="M40.2,29.3v4.5h-4v-6.5C37.7,27.5,39.1,28.3,40.2,29.3z"/>
	<path class="st4" d="M8.3,33.8V39c0,0.4,0.4,0.8,0.8,0.8h30.3c0.4,0,0.8-0.4,0.8-0.8v-5.3H8.3z"/>
	<path class="st8" d="M40.2,39v-5.3h-4V39c0,0.4-0.4,0.8-0.8,0.8h4C39.9,39.8,40.2,39.5,40.2,39z"/>
	<circle class="st1" cx="32.9" cy="17.5" r="2.6"/>
	<path class="st9" d="M59.5,18.3L47.8,31.2l5.3,5.3l12.9-11.7c1.9-1.8,2-4.8,0.2-6.6C64.3,16.3,61.2,16.4,59.5,18.3z"/>
	<g>
		<path class="st10" d="M47.8,31.2l2.9,2.9L47.8,31.2z"/>
		<path class="st11" d="M66.1,18.1c-0.4-0.4-0.9-0.7-1.4-0.9c0.7,1.7,0.4,3.8-1.2,5.2L50.7,34.1l2.4,2.4l12.9-11.7
			C67.9,23,68,20,66.1,18.1L66.1,18.1z"/>
	</g>
	<path class="st1" d="M47.4,32.5c-1.6-0.7-3.5-0.4-5,0.6c-4.1,2.6-1.5,7.4-6.1,8.9c-0.7,0.2-0.9,1.2-0.3,1.7
		c7.1,5.8,16.7,0.6,16.7-6.5L47.4,32.5z"/>
	<path class="st2" d="M52.7,37.3c0,7-9.6,12.2-16.7,6.5c-0.3-0.2-0.4-0.5-0.3-0.9c6.7,3.1,14.3-1.7,14.3-8l0-0.1L52.7,37.3z"/>
	<path class="st12" d="M46.1,28.3l-0.8,0.8c-0.9,0.9-0.9,2.4,0,3.4l6.5,6.5c0.9,0.9,2.4,0.9,3.4,0l0.8-0.8c0.9-0.9,0.9-2.4,0-3.4
		l-6.5-6.5C48.5,27.4,47,27.4,46.1,28.3z"/>
	<path class="st10" d="M55.9,34.8l-2.4-2.4c0.9,0.9,0.9,2.4,0,3.3l-0.8,0.8c-0.9,0.9-2.4,0.9-3.3,0l2.4,2.4c0.9,0.9,2.4,0.9,3.4,0
		l0.8-0.8C56.9,37.3,56.9,35.7,55.9,34.8z"/>
	<path class="st1" d="M65.3,79.3H14.8c-0.7,0-1.2-0.5-1.2-1.2c0-0.7,0.5-1.2,1.2-1.2h50.5c0.7,0,1.2,0.5,1.2,1.2S66,79.3,65.3,79.3z
		"/>
</g>
</svg>
